<?xml version="1.0" encoding="utf-8"?>
<!-- Generator: Adobe Illustrator 16.0.3, SVG Export Plug-In . SVG Version: 6.00 Build 0)  -->
<!DOCTYPE svg PUBLIC "-//W3C//DTD SVG 1.1//EN" "http://www.w3.org/Graphics/SVG/1.1/DTD/svg11.dtd">
<svg version="1.1" id="Layer_1" xmlns="http://www.w3.org/2000/svg" xmlns:xlink="http://www.w3.org/1999/xlink" x="0px" y="0px"
	 width="310.316px" height="155.198px" viewBox="0 0 310.316 155.198" enable-background="new 0 0 310.316 155.198"
	 xml:space="preserve">
<g>
	<g>
		<path d="M136.296,20.984h3.105v15.493c0,4.002-2.865,8.042-9.278,8.042c-5.816,0-9.283-2.947-9.283-7.897V20.984h3.501v15.204
			c0,3.986,1.929,5.835,6.067,5.835c4.065,0,5.888-2.929,5.888-5.835V20.984z"/>
		<path d="M149.36,20.984h-3.009v23.1h3.003V26.423l13.827,17.661h3.166v-23.1h-3.014v17.879L149.36,20.984z"/>
		<path d="M177.25,20.984v23.1h-3.471v-23.1H177.25z"/>
		<path d="M182.146,20.984h3.537l5.705,17.328l6.283-17.328h2.965l-8.811,23.1h-1.775L182.146,20.984z"/>
		<path d="M219.091,20.984v2.436h-10.266v7.53h8.211v2.425h-8.211v8.264h10.266v2.445h-13.76v-23.1H219.091z"/>
		<path d="M234.416,33.235l0.387-0.112c1.773-0.525,4.348-3.25,4.348-6.336c0-2.797-2.574-5.803-8.221-5.803h-6.322v23.1h3.5V23.149
			h2.508c3.74,0,5.066,2.15,5.066,3.994c0,1.943-1.584,4.677-5.105,4.677c0,0-0.592,0-0.869,0l7.76,12.264h4.133L234.416,33.235z"/>
		<path d="M255.794,38.645c0-2.17-2.057-3.406-4.432-4.842l-0.803-0.484c-2.641-1.607-5.455-3.603-5.455-6.884
			c0-3.367,2.979-5.916,6.932-5.916c3.389,0,5.27,0.789,6.137,1.169c-0.074,0.165-0.867,2.081-0.951,2.292
			c-0.764-0.35-2.381-1.031-4.582-1.031c-2.502,0-4.064,1.091-4.064,2.845c0,2.134,1.76,3.22,3.998,4.594l1.016,0.622
			c-0.006,0,0.143,0.093,0.143,0.093c2.303,1.456,5.777,3.657,5.777,6.833c0,3.938-4.207,6.586-8.146,6.586
			c-3.785,0-5.949-1.055-6.848-1.508c0.082-0.184,0.895-2.009,0.982-2.211c0.006,0.004,0.023,0.012,0.023,0.012
			c1.014,0.452,2.906,1.283,5.914,1.283C253.832,42.097,255.794,40.545,255.794,38.645z"/>
		<path d="M268.841,20.984v23.1h-3.463v-23.1H268.841z"/>
		<path d="M292.019,20.984v2.436h-7.553v20.664h-3.5V23.42h-7.592v-2.436H292.019z"/>
		<g>
			<path d="M300.052,23.42v7.53h8.211v2.425h-8.211v8.264c0,0,10.014,0,10.264,0v2.445h-13.77v-23.1h13.77v2.436H300.052z"/>
			<path d="M306.878,13.297l1.359,2.036l-5.938,3.244l-0.813-1.259L306.878,13.297z"/>
		</g>
	</g>
	<g>
		<path d="M223.531,53.248v0.233c4.943,1.906,2.219,8.161,0.078,13.571l-10.83,27.387l-15.82-41.19h-10.57v0.233
			c3.09,2.358,4.715,7.017,6.215,10.904l15.08,39.027h7.617l20.111-50.164H223.531z"/>
		<path d="M310.316,95.922c-2.92,1.339-6.135,1.971-9.713,1.971h-10.834V53.248h-11.717v0.233c3.672,1.254,3.588,6.988,3.588,10.519
			l-0.006,39.149c-3.902-1.94-5.926-6.464-7.754-10.794l-16.566-39.107h-12.588v0.233c3.777,1.121,2.342,4.345,1.193,7.086
			l-13.307,31.789c-1.816,4.33-3.697,8.823-7.732,10.825v0.231h9.961l5.109-13.263h24.438l5.271,13.263h40.656V95.922z
			 M242.109,84.532l9.943-24.8l10.102,24.8H242.109z"/>
		<path d="M190.818,92.355l-16.574-39.107h-12.582v0.233c3.775,1.121,2.342,4.345,1.195,7.086v0.003l-0.002-0.003l-13.306,31.789
			c-0.661,1.575-1.332,3.171-2.11,4.662c-1.921,0.568-3.96,0.876-6.138,0.876h-10.837V53.253H118.75v0.233
			c3.674,1.254,3.59,6.986,3.59,10.518l-0.006,39.408h29.442l5.109-13.263h24.438h0.004l5.27,13.263h12.033v-0.231
			C194.466,101.074,192.654,96.702,190.818,92.355z M159.044,84.532l9.943-24.8l10.104,24.8H159.044z"/>
	</g>
	<path d="M0.007,4.581v99.903c0,8.6,6.623,15.33,15.076,15.33h23.742c3.174,0,7.306,2.143,9.374,8.156l1.145,3.325
		c0.282,0.687,0.681,1.124,1.138,1.124c0.449,0,0.855-0.438,1.137-1.124l1.145-3.325c2.068-6.014,6.194-8.156,9.368-8.156h23.743
		c8.455,0,15.073-6.73,15.073-15.33V4.581H0.007z"/>
	<g>
		<rect x="2.418" y="6.992" fill="#ED1C24" width="39.106" height="46.255"/>
		<path fill="#ED1C24" d="M2.418,71.146v33.337c0,7.519,5.803,12.918,12.665,12.918c0,0,23.699,0,23.742,0
			c0.857,0,1.77,0.121,2.7,0.384V71.146H2.418z"/>
		<rect x="59.425" y="6.992" fill="#ED1C24" width="39.109" height="46.255"/>
		<path fill="#ED1C24" d="M59.425,117.787c0.933-0.264,1.848-0.386,2.706-0.386c0.044,0,23.743,0,23.743,0
			c6.861,0,12.661-5.399,12.661-12.918V71.146H59.425V117.787z"/>
	</g>
	<path fill="#FFCB05" d="M59.425,53.247V6.992h-17.9v46.255H2.418v17.899h39.106v46.639c3.396,0.955,7.023,3.78,8.956,9.403
		c1.931-5.617,5.554-8.443,8.944-9.401V71.146h39.109V53.247H59.425z"/>
	<g>
		<path d="M16.845,26.091c0.081,0.293-0.109,0.53-0.325,0.638c-0.406,0.206-1.59,0.292-2.043,0.144c0,0-0.594,1.063-1.469,1.063
			s-1.469-1.063-1.469-1.063c-0.453,0.149-1.638,0.063-2.044-0.144c-0.215-0.108-0.406-0.344-0.325-0.638
			c0.25-0.95,1.043-4.031,1.313-5.112l-1.6,0.594c-0.278,1.219-1.131,3.181-2.587,3.288c-0.21,0.018-0.513-0.07-0.494-0.269
			c0.188-1.649,1.19-9.106,1.291-9.817c0.097-0.707,0.322-1.038,0.822-1.2c0.481-0.156,0.843-0.044,1.362,0.425
			c0.4,0.356,1.851,1.7,1.851,1.7s0.162-1.225,0.206-1.619c-0.168,0-0.381,0-0.381,0c-0.209,0-0.378-0.168-0.378-0.375l0.172-1.481
			c0-0.149,0.094-0.287,0.222-0.344c0,0,0.628-0.3,1.147-0.5c0.519-0.199,0.894-0.199,0.894-0.199
			c0.418,0.012,0.743,0.125,1.012,0.337c0.309,0.237,0.494,0.581,0.538,0.994l0.331,3.188c0,0,1.45-1.344,1.85-1.7
			c0.519-0.469,0.881-0.581,1.362-0.425c0.5,0.162,0.726,0.494,0.822,1.2c0.101,0.711,1.104,8.168,1.291,9.817
			c0.019,0.199-0.285,0.287-0.494,0.269c-1.456-0.107-2.31-2.069-2.588-3.288l-1.6-0.594C15.802,22.06,16.595,25.141,16.845,26.091z
			"/>
		<path d="M34.764,26.091c0.081,0.293-0.109,0.53-0.325,0.638c-0.406,0.206-1.59,0.292-2.043,0.144c0,0-0.594,1.063-1.469,1.063
			s-1.469-1.063-1.469-1.063c-0.453,0.149-1.637,0.063-2.043-0.144c-0.215-0.108-0.406-0.344-0.325-0.638
			c0.25-0.95,1.043-4.031,1.313-5.112l-1.601,0.594c-0.278,1.219-1.131,3.181-2.587,3.288c-0.21,0.018-0.513-0.07-0.494-0.269
			c0.188-1.649,1.19-9.106,1.291-9.817c0.097-0.707,0.321-1.038,0.822-1.2c0.48-0.156,0.843-0.044,1.362,0.425
			c0.4,0.356,1.85,1.7,1.85,1.7s0.162-1.225,0.206-1.619c-0.169,0-0.381,0-0.381,0c-0.21,0-0.378-0.168-0.378-0.375l0.172-1.481
			c0-0.149,0.094-0.287,0.222-0.344c0,0,0.628-0.3,1.146-0.5c0.519-0.199,0.894-0.199,0.894-0.199
			c0.419,0.012,0.744,0.125,1.013,0.337c0.309,0.237,0.493,0.581,0.537,0.994l0.331,3.188c0,0,1.45-1.344,1.85-1.7
			c0.519-0.469,0.882-0.581,1.363-0.425c0.5,0.162,0.725,0.494,0.822,1.2c0.101,0.711,1.104,8.168,1.291,9.817
			c0.019,0.199-0.285,0.287-0.494,0.269c-1.456-0.107-2.31-2.069-2.587-3.288l-1.6-0.594C33.721,22.06,34.514,25.141,34.764,26.091z
			"/>
		<path d="M16.845,47.214c0.081,0.293-0.109,0.53-0.325,0.638c-0.406,0.206-1.59,0.292-2.043,0.144c0,0-0.594,1.063-1.469,1.063
			s-1.469-1.063-1.469-1.063c-0.453,0.149-1.638,0.063-2.044-0.144c-0.215-0.108-0.406-0.344-0.325-0.638
			c0.25-0.95,1.043-4.031,1.313-5.112l-1.6,0.594c-0.278,1.219-1.131,3.181-2.587,3.288c-0.21,0.018-0.513-0.07-0.494-0.269
			c0.188-1.649,1.19-9.106,1.291-9.817c0.097-0.707,0.322-1.038,0.822-1.2c0.481-0.156,0.843-0.044,1.362,0.425
			c0.4,0.356,1.851,1.7,1.851,1.7s0.162-1.225,0.206-1.619c-0.168,0-0.381,0-0.381,0c-0.209,0-0.378-0.168-0.378-0.375l0.172-1.481
			c0-0.149,0.094-0.287,0.222-0.344c0,0,0.628-0.3,1.147-0.5c0.519-0.199,0.894-0.199,0.894-0.199
			c0.418,0.012,0.743,0.125,1.012,0.337c0.309,0.237,0.494,0.581,0.538,0.994l0.331,3.188c0,0,1.45-1.344,1.85-1.7
			c0.519-0.469,0.881-0.581,1.362-0.425c0.5,0.162,0.726,0.494,0.822,1.2c0.101,0.711,1.104,8.168,1.291,9.817
			c0.019,0.199-0.285,0.287-0.494,0.269c-1.456-0.107-2.31-2.069-2.588-3.288l-1.6-0.594C15.802,43.183,16.595,46.264,16.845,47.214
			z"/>
		<path d="M34.764,47.214c0.081,0.293-0.109,0.53-0.325,0.638c-0.406,0.206-1.59,0.292-2.043,0.144c0,0-0.594,1.063-1.469,1.063
			s-1.469-1.063-1.469-1.063c-0.453,0.149-1.637,0.063-2.043-0.144c-0.215-0.108-0.406-0.344-0.325-0.638
			c0.25-0.95,1.043-4.031,1.313-5.112l-1.601,0.594c-0.278,1.219-1.131,3.181-2.587,3.288c-0.21,0.018-0.513-0.07-0.494-0.269
			c0.188-1.649,1.19-9.106,1.291-9.817c0.097-0.707,0.321-1.038,0.822-1.2c0.48-0.156,0.843-0.044,1.362,0.425
			c0.4,0.356,1.85,1.7,1.85,1.7s0.162-1.225,0.206-1.619c-0.169,0-0.381,0-0.381,0c-0.21,0-0.378-0.168-0.378-0.375l0.172-1.481
			c0-0.149,0.094-0.287,0.222-0.344c0,0,0.628-0.3,1.146-0.5c0.519-0.199,0.894-0.199,0.894-0.199
			c0.419,0.012,0.744,0.125,1.013,0.337c0.309,0.237,0.493,0.581,0.537,0.994l0.331,3.188c0,0,1.45-1.344,1.85-1.7
			c0.519-0.469,0.882-0.581,1.363-0.425c0.5,0.162,0.725,0.494,0.822,1.2c0.101,0.711,1.104,8.168,1.291,9.817
			c0.019,0.199-0.285,0.287-0.494,0.269c-1.456-0.107-2.31-2.069-2.587-3.288l-1.6-0.594C33.721,43.183,34.514,46.264,34.764,47.214
			z"/>
		<path d="M73.852,26.091c0.081,0.293-0.109,0.53-0.325,0.638c-0.406,0.206-1.59,0.292-2.043,0.144c0,0-0.594,1.063-1.469,1.063
			s-1.469-1.063-1.469-1.063c-0.453,0.149-1.637,0.063-2.043-0.144c-0.216-0.108-0.406-0.344-0.325-0.638
			c0.25-0.95,1.044-4.031,1.313-5.112l-1.6,0.594c-0.278,1.219-1.131,3.181-2.587,3.288c-0.21,0.018-0.513-0.07-0.494-0.269
			c0.188-1.649,1.19-9.106,1.29-9.817c0.097-0.707,0.322-1.038,0.822-1.2c0.481-0.156,0.844-0.044,1.362,0.425
			c0.4,0.356,1.85,1.7,1.85,1.7s0.162-1.225,0.206-1.619c-0.168,0-0.381,0-0.381,0c-0.209,0-0.378-0.168-0.378-0.375l0.172-1.481
			c0-0.149,0.094-0.287,0.222-0.344c0,0,0.628-0.3,1.147-0.5c0.518-0.199,0.893-0.199,0.893-0.199
			c0.418,0.012,0.744,0.125,1.012,0.337c0.31,0.237,0.494,0.581,0.538,0.994l0.331,3.188c0,0,1.45-1.344,1.85-1.7
			c0.519-0.469,0.881-0.581,1.362-0.425c0.5,0.162,0.725,0.494,0.822,1.2c0.1,0.711,1.104,8.168,1.291,9.817
			c0.018,0.199-0.285,0.287-0.494,0.269c-1.457-0.107-2.31-2.069-2.588-3.288l-1.6-0.594C72.808,22.06,73.602,25.141,73.852,26.091z
			"/>
		<path d="M91.771,26.091c0.081,0.293-0.109,0.53-0.325,0.638c-0.406,0.206-1.59,0.292-2.043,0.144c0,0-0.594,1.063-1.469,1.063
			s-1.469-1.063-1.469-1.063c-0.453,0.149-1.638,0.063-2.044-0.144c-0.215-0.108-0.406-0.344-0.325-0.638
			c0.25-0.95,1.043-4.031,1.313-5.112l-1.6,0.594c-0.278,1.219-1.131,3.181-2.587,3.288c-0.21,0.018-0.513-0.07-0.494-0.269
			c0.188-1.649,1.19-9.106,1.291-9.817c0.097-0.707,0.322-1.038,0.822-1.2c0.481-0.156,0.843-0.044,1.362,0.425
			c0.4,0.356,1.851,1.7,1.851,1.7s0.162-1.225,0.206-1.619c-0.168,0-0.381,0-0.381,0c-0.209,0-0.378-0.168-0.378-0.375l0.172-1.481
			c0-0.149,0.094-0.287,0.222-0.344c0,0,0.628-0.3,1.147-0.5c0.519-0.199,0.894-0.199,0.894-0.199
			c0.418,0.012,0.743,0.125,1.012,0.337c0.309,0.237,0.494,0.581,0.538,0.994l0.331,3.188c0,0,1.45-1.344,1.85-1.7
			c0.519-0.469,0.881-0.581,1.362-0.425c0.5,0.162,0.726,0.494,0.822,1.2c0.101,0.711,1.104,8.168,1.291,9.817
			c0.019,0.199-0.285,0.287-0.494,0.269c-1.456-0.107-2.31-2.069-2.588-3.288l-1.6-0.594C90.728,22.06,91.521,25.141,91.771,26.091z
			"/>
		<path d="M73.852,47.214c0.081,0.293-0.109,0.53-0.325,0.638c-0.406,0.206-1.59,0.292-2.043,0.144c0,0-0.594,1.063-1.469,1.063
			s-1.469-1.063-1.469-1.063c-0.453,0.149-1.637,0.063-2.043-0.144c-0.216-0.108-0.406-0.344-0.325-0.638
			c0.25-0.95,1.044-4.031,1.313-5.112l-1.6,0.594c-0.278,1.219-1.131,3.181-2.587,3.288c-0.21,0.018-0.513-0.07-0.494-0.269
			c0.188-1.649,1.19-9.106,1.29-9.817c0.097-0.707,0.322-1.038,0.822-1.2c0.481-0.156,0.844-0.044,1.362,0.425
			c0.4,0.356,1.85,1.7,1.85,1.7s0.162-1.225,0.206-1.619c-0.168,0-0.381,0-0.381,0c-0.209,0-0.378-0.168-0.378-0.375l0.172-1.481
			c0-0.149,0.094-0.287,0.222-0.344c0,0,0.628-0.3,1.147-0.5c0.518-0.199,0.893-0.199,0.893-0.199
			c0.418,0.012,0.744,0.125,1.012,0.337c0.31,0.237,0.494,0.581,0.538,0.994l0.331,3.188c0,0,1.45-1.344,1.85-1.7
			c0.519-0.469,0.881-0.581,1.362-0.425c0.5,0.162,0.725,0.494,0.822,1.2c0.1,0.711,1.104,8.168,1.291,9.817
			c0.018,0.199-0.285,0.287-0.494,0.269c-1.457-0.107-2.31-2.069-2.588-3.288l-1.6-0.594C72.808,43.183,73.602,46.264,73.852,47.214
			z"/>
		<path d="M91.771,47.214c0.081,0.293-0.109,0.53-0.325,0.638c-0.406,0.206-1.59,0.292-2.043,0.144c0,0-0.594,1.063-1.469,1.063
			s-1.469-1.063-1.469-1.063c-0.453,0.149-1.638,0.063-2.044-0.144c-0.215-0.108-0.406-0.344-0.325-0.638
			c0.25-0.95,1.043-4.031,1.313-5.112l-1.6,0.594c-0.278,1.219-1.131,3.181-2.587,3.288c-0.21,0.018-0.513-0.07-0.494-0.269
			c0.188-1.649,1.19-9.106,1.291-9.817c0.097-0.707,0.322-1.038,0.822-1.2c0.481-0.156,0.843-0.044,1.362,0.425
			c0.4,0.356,1.851,1.7,1.851,1.7s0.162-1.225,0.206-1.619c-0.168,0-0.381,0-0.381,0c-0.209,0-0.378-0.168-0.378-0.375l0.172-1.481
			c0-0.149,0.094-0.287,0.222-0.344c0,0,0.628-0.3,1.147-0.5c0.519-0.199,0.894-0.199,0.894-0.199
			c0.418,0.012,0.743,0.125,1.012,0.337c0.309,0.237,0.494,0.581,0.538,0.994l0.331,3.188c0,0,1.45-1.344,1.85-1.7
			c0.519-0.469,0.881-0.581,1.362-0.425c0.5,0.162,0.726,0.494,0.822,1.2c0.101,0.711,1.104,8.168,1.291,9.817
			c0.019,0.199-0.285,0.287-0.494,0.269c-1.456-0.107-2.31-2.069-2.588-3.288l-1.6-0.594C90.728,43.183,91.521,46.264,91.771,47.214
			z"/>
		<path d="M16.845,90.245c0.081,0.293-0.109,0.53-0.325,0.638c-0.406,0.206-1.59,0.292-2.043,0.144c0,0-0.594,1.063-1.469,1.063
			s-1.469-1.063-1.469-1.063c-0.453,0.148-1.638,0.063-2.044-0.144c-0.215-0.107-0.406-0.345-0.325-0.638
			c0.25-0.95,1.043-4.031,1.313-5.112l-1.6,0.594c-0.278,1.219-1.131,3.181-2.587,3.287c-0.21,0.019-0.513-0.069-0.494-0.269
			c0.188-1.649,1.19-9.106,1.291-9.817c0.097-0.707,0.322-1.038,0.822-1.2c0.481-0.156,0.843-0.044,1.362,0.425
			c0.4,0.356,1.851,1.7,1.851,1.7s0.162-1.226,0.206-1.619c-0.168,0-0.381,0-0.381,0c-0.209,0-0.378-0.169-0.378-0.375l0.172-1.481
			c0-0.149,0.094-0.287,0.222-0.344c0,0,0.628-0.3,1.147-0.5c0.519-0.199,0.894-0.199,0.894-0.199
			c0.418,0.012,0.743,0.125,1.012,0.337c0.309,0.237,0.494,0.581,0.538,0.994l0.331,3.188c0,0,1.45-1.344,1.85-1.7
			c0.519-0.469,0.881-0.581,1.362-0.425c0.5,0.162,0.726,0.493,0.822,1.2c0.101,0.711,1.104,8.168,1.291,9.817
			c0.019,0.199-0.285,0.287-0.494,0.269c-1.456-0.106-2.31-2.068-2.588-3.287l-1.6-0.594C15.802,86.214,16.595,89.295,16.845,90.245
			z"/>
		<path d="M34.764,90.245c0.081,0.293-0.109,0.53-0.325,0.638c-0.406,0.206-1.59,0.292-2.043,0.144c0,0-0.594,1.063-1.469,1.063
			s-1.469-1.063-1.469-1.063c-0.453,0.148-1.637,0.063-2.043-0.144c-0.215-0.107-0.406-0.345-0.325-0.638
			c0.25-0.95,1.043-4.031,1.313-5.112l-1.601,0.594c-0.278,1.219-1.131,3.181-2.587,3.287c-0.21,0.019-0.513-0.069-0.494-0.269
			c0.188-1.649,1.19-9.106,1.291-9.817c0.097-0.707,0.321-1.038,0.822-1.2c0.48-0.156,0.843-0.044,1.362,0.425
			c0.4,0.356,1.85,1.7,1.85,1.7s0.162-1.226,0.206-1.619c-0.169,0-0.381,0-0.381,0c-0.21,0-0.378-0.169-0.378-0.375l0.172-1.481
			c0-0.149,0.094-0.287,0.222-0.344c0,0,0.628-0.3,1.146-0.5c0.519-0.199,0.894-0.199,0.894-0.199
			c0.419,0.012,0.744,0.125,1.013,0.337c0.309,0.237,0.493,0.581,0.537,0.994l0.331,3.188c0,0,1.45-1.344,1.85-1.7
			c0.519-0.469,0.882-0.581,1.363-0.425c0.5,0.162,0.725,0.493,0.822,1.2c0.101,0.711,1.104,8.168,1.291,9.817
			c0.019,0.199-0.285,0.287-0.494,0.269c-1.456-0.106-2.31-2.068-2.587-3.287l-1.6-0.594C33.721,86.214,34.514,89.295,34.764,90.245
			z"/>
		<path d="M16.845,111.368c0.081,0.294-0.109,0.529-0.325,0.638c-0.406,0.206-1.59,0.293-2.043,0.144c0,0-0.594,1.063-1.469,1.063
			s-1.469-1.063-1.469-1.063c-0.453,0.149-1.638,0.063-2.044-0.144c-0.215-0.108-0.406-0.344-0.325-0.638
			c0.25-0.95,1.043-4.031,1.313-5.112l-1.6,0.594c-0.278,1.219-1.131,3.181-2.587,3.287c-0.21,0.019-0.513-0.069-0.494-0.269
			c0.188-1.649,1.19-9.106,1.291-9.817c0.097-0.707,0.322-1.038,0.822-1.2c0.481-0.156,0.843-0.044,1.362,0.425
			c0.4,0.356,1.851,1.7,1.851,1.7s0.162-1.226,0.206-1.619c-0.168,0-0.381,0-0.381,0c-0.209,0-0.378-0.169-0.378-0.375l0.172-1.481
			c0-0.149,0.094-0.287,0.222-0.344c0,0,0.628-0.3,1.147-0.5c0.519-0.199,0.894-0.199,0.894-0.199
			c0.418,0.012,0.743,0.125,1.012,0.337c0.309,0.237,0.494,0.581,0.538,0.994l0.331,3.188c0,0,1.45-1.344,1.85-1.7
			c0.519-0.469,0.881-0.581,1.362-0.425c0.5,0.162,0.726,0.493,0.822,1.2c0.101,0.711,1.104,8.168,1.291,9.817
			c0.019,0.199-0.285,0.287-0.494,0.269c-1.456-0.106-2.31-2.068-2.588-3.287l-1.6-0.594
			C15.802,107.337,16.595,110.418,16.845,111.368z"/>
		<path d="M34.764,111.368c0.081,0.294-0.109,0.529-0.325,0.638c-0.406,0.206-1.59,0.293-2.043,0.144c0,0-0.594,1.063-1.469,1.063
			s-1.469-1.063-1.469-1.063c-0.453,0.149-1.637,0.063-2.043-0.144c-0.215-0.108-0.406-0.344-0.325-0.638
			c0.25-0.95,1.043-4.031,1.313-5.112l-1.601,0.594c-0.278,1.219-1.131,3.181-2.587,3.287c-0.21,0.019-0.513-0.069-0.494-0.269
			c0.188-1.649,1.19-9.106,1.291-9.817c0.097-0.707,0.321-1.038,0.822-1.2c0.48-0.156,0.843-0.044,1.362,0.425
			c0.4,0.356,1.85,1.7,1.85,1.7s0.162-1.226,0.206-1.619c-0.169,0-0.381,0-0.381,0c-0.21,0-0.378-0.169-0.378-0.375l0.172-1.481
			c0-0.149,0.094-0.287,0.222-0.344c0,0,0.628-0.3,1.146-0.5c0.519-0.199,0.894-0.199,0.894-0.199
			c0.419,0.012,0.744,0.125,1.013,0.337c0.309,0.237,0.493,0.581,0.537,0.994l0.331,3.188c0,0,1.45-1.344,1.85-1.7
			c0.519-0.469,0.882-0.581,1.363-0.425c0.5,0.162,0.725,0.493,0.822,1.2c0.101,0.711,1.104,8.168,1.291,9.817
			c0.019,0.199-0.285,0.287-0.494,0.269c-1.456-0.106-2.31-2.068-2.587-3.287l-1.6-0.594
			C33.721,107.337,34.514,110.418,34.764,111.368z"/>
		<path d="M73.852,90.245c0.081,0.293-0.109,0.53-0.325,0.638c-0.406,0.206-1.59,0.292-2.043,0.144c0,0-0.594,1.063-1.469,1.063
			s-1.469-1.063-1.469-1.063c-0.453,0.148-1.637,0.063-2.043-0.144c-0.216-0.107-0.406-0.345-0.325-0.638
			c0.25-0.95,1.044-4.031,1.313-5.112l-1.6,0.594c-0.278,1.219-1.131,3.181-2.587,3.287c-0.21,0.019-0.513-0.069-0.494-0.269
			c0.188-1.649,1.19-9.106,1.29-9.817c0.097-0.707,0.322-1.038,0.822-1.2c0.481-0.156,0.844-0.044,1.362,0.425
			c0.4,0.356,1.85,1.7,1.85,1.7s0.162-1.226,0.206-1.619c-0.168,0-0.381,0-0.381,0c-0.209,0-0.378-0.169-0.378-0.375l0.172-1.481
			c0-0.149,0.094-0.287,0.222-0.344c0,0,0.628-0.3,1.147-0.5c0.518-0.199,0.893-0.199,0.893-0.199
			c0.418,0.012,0.744,0.125,1.012,0.337c0.31,0.237,0.494,0.581,0.538,0.994l0.331,3.188c0,0,1.45-1.344,1.85-1.7
			c0.519-0.469,0.881-0.581,1.362-0.425c0.5,0.162,0.725,0.493,0.822,1.2c0.1,0.711,1.104,8.168,1.291,9.817
			c0.018,0.199-0.285,0.287-0.494,0.269c-1.457-0.106-2.31-2.068-2.588-3.287l-1.6-0.594C72.808,86.214,73.602,89.295,73.852,90.245
			z"/>
		<path d="M91.771,90.245c0.081,0.293-0.109,0.53-0.325,0.638c-0.406,0.206-1.59,0.292-2.043,0.144c0,0-0.594,1.063-1.469,1.063
			s-1.469-1.063-1.469-1.063c-0.453,0.148-1.638,0.063-2.044-0.144c-0.215-0.107-0.406-0.345-0.325-0.638
			c0.25-0.95,1.043-4.031,1.313-5.112l-1.6,0.594c-0.278,1.219-1.131,3.181-2.587,3.287c-0.21,0.019-0.513-0.069-0.494-0.269
			c0.188-1.649,1.19-9.106,1.291-9.817c0.097-0.707,0.322-1.038,0.822-1.2c0.481-0.156,0.843-0.044,1.362,0.425
			c0.4,0.356,1.851,1.7,1.851,1.7s0.162-1.226,0.206-1.619c-0.168,0-0.381,0-0.381,0c-0.209,0-0.378-0.169-0.378-0.375l0.172-1.481
			c0-0.149,0.094-0.287,0.222-0.344c0,0,0.628-0.3,1.147-0.5c0.519-0.199,0.894-0.199,0.894-0.199
			c0.418,0.012,0.743,0.125,1.012,0.337c0.309,0.237,0.494,0.581,0.538,0.994l0.331,3.188c0,0,1.45-1.344,1.85-1.7
			c0.519-0.469,0.881-0.581,1.362-0.425c0.5,0.162,0.726,0.493,0.822,1.2c0.101,0.711,1.104,8.168,1.291,9.817
			c0.019,0.199-0.285,0.287-0.494,0.269c-1.456-0.106-2.31-2.068-2.588-3.287l-1.6-0.594C90.728,86.214,91.521,89.295,91.771,90.245
			z"/>
		<path d="M73.852,111.368c0.081,0.294-0.109,0.529-0.325,0.638c-0.406,0.206-1.59,0.293-2.043,0.144c0,0-0.594,1.063-1.469,1.063
			s-1.469-1.063-1.469-1.063c-0.453,0.149-1.637,0.063-2.043-0.144c-0.216-0.108-0.406-0.344-0.325-0.638
			c0.25-0.95,1.044-4.031,1.313-5.112l-1.6,0.594c-0.278,1.219-1.131,3.181-2.587,3.287c-0.21,0.019-0.513-0.069-0.494-0.269
			c0.188-1.649,1.19-9.106,1.29-9.817c0.097-0.707,0.322-1.038,0.822-1.2c0.481-0.156,0.844-0.044,1.362,0.425
			c0.4,0.356,1.85,1.7,1.85,1.7s0.162-1.226,0.206-1.619c-0.168,0-0.381,0-0.381,0c-0.209,0-0.378-0.169-0.378-0.375l0.172-1.481
			c0-0.149,0.094-0.287,0.222-0.344c0,0,0.628-0.3,1.147-0.5c0.518-0.199,0.893-0.199,0.893-0.199
			c0.418,0.012,0.744,0.125,1.012,0.337c0.31,0.237,0.494,0.581,0.538,0.994l0.331,3.188c0,0,1.45-1.344,1.85-1.7
			c0.519-0.469,0.881-0.581,1.362-0.425c0.5,0.162,0.725,0.493,0.822,1.2c0.1,0.711,1.104,8.168,1.291,9.817
			c0.018,0.199-0.285,0.287-0.494,0.269c-1.457-0.106-2.31-2.068-2.588-3.287l-1.6-0.594
			C72.808,107.337,73.602,110.418,73.852,111.368z"/>
		<path d="M91.771,111.368c0.081,0.294-0.109,0.529-0.325,0.638c-0.406,0.206-1.59,0.293-2.043,0.144c0,0-0.594,1.063-1.469,1.063
			s-1.469-1.063-1.469-1.063c-0.453,0.149-1.638,0.063-2.044-0.144c-0.215-0.108-0.406-0.344-0.325-0.638
			c0.25-0.95,1.043-4.031,1.313-5.112l-1.6,0.594c-0.278,1.219-1.131,3.181-2.587,3.287c-0.21,0.019-0.513-0.069-0.494-0.269
			c0.188-1.649,1.19-9.106,1.291-9.817c0.097-0.707,0.322-1.038,0.822-1.2c0.481-0.156,0.843-0.044,1.362,0.425
			c0.4,0.356,1.851,1.7,1.851,1.7s0.162-1.226,0.206-1.619c-0.168,0-0.381,0-0.381,0c-0.209,0-0.378-0.169-0.378-0.375l0.172-1.481
			c0-0.149,0.094-0.287,0.222-0.344c0,0,0.628-0.3,1.147-0.5c0.519-0.199,0.894-0.199,0.894-0.199
			c0.418,0.012,0.743,0.125,1.012,0.337c0.309,0.237,0.494,0.581,0.538,0.994l0.331,3.188c0,0,1.45-1.344,1.85-1.7
			c0.519-0.469,0.881-0.581,1.362-0.425c0.5,0.162,0.726,0.493,0.822,1.2c0.101,0.711,1.104,8.168,1.291,9.817
			c0.019,0.199-0.285,0.287-0.494,0.269c-1.456-0.106-2.31-2.068-2.588-3.287l-1.6-0.594
			C90.728,107.337,91.521,110.418,91.771,111.368z"/>
	</g>
	<g>
		<path d="M50.477,36.711c0.771,0,1.438-0.403,1.824-1.008c0.304,0.156,0.644,0.246,1.005,0.246c1.123,0,2.044-0.854,2.158-1.947
			c1.173-0.023,2.127-0.989,2.127-2.17c0-0.538-0.202-1.032-0.53-1.414c-0.523-0.629-2.419-2.91-2.45-2.946c0-0.133,0-1.225,0-1.225
			c0-0.581-0.466-1.057-1.047-1.057c0,0-1.017,0-1.08,0c-0.121-0.117-0.979-0.969-0.984-0.984c-0.271-0.276-0.632-0.427-1.023-0.427
			c-0.391,0-0.752,0.15-1.023,0.427c-0.006,0.016-0.863,0.867-0.983,0.984c-0.063,0-1.081,0-1.081,0
			c-0.58,0-1.047,0.476-1.047,1.057c0,0,0,1.092,0,1.225c-0.03,0.036-1.926,2.317-2.45,2.946c-0.328,0.382-0.529,0.876-0.529,1.414
			c0,1.181,0.954,2.146,2.128,2.17c0.114,1.093,1.035,1.947,2.158,1.947c0.361,0,0.701-0.09,1.005-0.246
			C49.039,36.308,49.707,36.711,50.477,36.711z"/>
		<path d="M50.477,68.788c0.771,0,1.438-0.403,1.824-1.008c0.304,0.156,0.644,0.247,1.005,0.247c1.123,0,2.044-0.855,2.158-1.947
			c1.173-0.024,2.127-0.99,2.127-2.17c0-0.539-0.202-1.032-0.53-1.415c-0.523-0.629-2.419-2.91-2.45-2.946c0-0.132,0-1.225,0-1.225
			c0-0.581-0.466-1.057-1.047-1.057c0,0-1.017,0-1.08,0c-0.121-0.117-0.979-0.969-0.984-0.984c-0.271-0.277-0.632-0.427-1.023-0.427
			c-0.391,0-0.752,0.15-1.023,0.427c-0.006,0.015-0.863,0.867-0.983,0.984c-0.063,0-1.081,0-1.081,0
			c-0.58,0-1.047,0.476-1.047,1.057c0,0,0,1.092,0,1.225c-0.03,0.036-1.926,2.317-2.45,2.946c-0.328,0.383-0.529,0.876-0.529,1.415
			c0,1.18,0.954,2.146,2.128,2.17c0.114,1.092,1.035,1.947,2.158,1.947c0.361,0,0.701-0.091,1.005-0.247
			C49.039,68.385,49.707,68.788,50.477,68.788z"/>
		<path d="M21.972,68.788c0.771,0,1.439-0.403,1.824-1.008c0.304,0.156,0.645,0.247,1.005,0.247c1.123,0,2.043-0.855,2.158-1.947
			c1.174-0.024,2.128-0.99,2.128-2.17c0-0.539-0.202-1.032-0.53-1.415c-0.524-0.629-2.419-2.91-2.45-2.946c0-0.132,0-1.225,0-1.225
			c0-0.581-0.467-1.057-1.047-1.057c0,0-1.017,0-1.081,0c-0.12-0.117-0.978-0.969-0.984-0.984c-0.271-0.277-0.632-0.427-1.023-0.427
			s-0.752,0.15-1.023,0.427c-0.006,0.015-0.864,0.867-0.984,0.984c-0.063,0-1.08,0-1.08,0c-0.581,0-1.048,0.476-1.048,1.057
			c0,0,0,1.092,0,1.225c-0.03,0.036-1.926,2.317-2.449,2.946c-0.328,0.383-0.53,0.876-0.53,1.415c0,1.18,0.954,2.146,2.128,2.17
			c0.114,1.092,1.035,1.947,2.158,1.947c0.361,0,0.701-0.091,1.005-0.247C20.533,68.385,21.202,68.788,21.972,68.788z"/>
		<path d="M78.978,68.788c0.771,0,1.438-0.403,1.824-1.008c0.304,0.156,0.644,0.247,1.005,0.247c1.123,0,2.044-0.855,2.158-1.947
			c1.173-0.024,2.127-0.99,2.127-2.17c0-0.539-0.201-1.032-0.529-1.415c-0.523-0.629-2.42-2.91-2.45-2.946c0-0.132,0-1.225,0-1.225
			c0-0.581-0.466-1.057-1.047-1.057c0,0-1.018,0-1.08,0c-0.121-0.117-0.979-0.969-0.984-0.984c-0.271-0.277-0.632-0.427-1.023-0.427
			c-0.391,0-0.752,0.15-1.023,0.427c-0.006,0.015-0.863,0.867-0.984,0.984c-0.063,0-1.081,0-1.081,0
			c-0.581,0-1.047,0.476-1.047,1.057c0,0,0,1.092,0,1.225c-0.03,0.036-1.927,2.317-2.45,2.946c-0.328,0.383-0.529,0.876-0.529,1.415
			c0,1.18,0.954,2.146,2.127,2.17c0.114,1.092,1.035,1.947,2.158,1.947c0.361,0,0.701-0.091,1.005-0.247
			C77.54,68.385,78.208,68.788,78.978,68.788z"/>
		<path d="M50.477,100.865c0.771,0,1.438-0.403,1.824-1.008c0.304,0.156,0.644,0.246,1.005,0.246c1.123,0,2.044-0.855,2.158-1.947
			c1.173-0.024,2.127-0.99,2.127-2.17c0-0.539-0.202-1.032-0.53-1.414c-0.523-0.629-2.419-2.91-2.45-2.947c0-0.132,0-1.225,0-1.225
			c0-0.581-0.466-1.057-1.047-1.057c0,0-1.017,0-1.08,0c-0.121-0.117-0.979-0.969-0.984-0.983c-0.271-0.277-0.632-0.428-1.023-0.428
			c-0.391,0-0.752,0.15-1.023,0.428c-0.006,0.015-0.863,0.866-0.983,0.983c-0.063,0-1.081,0-1.081,0
			c-0.58,0-1.047,0.476-1.047,1.057c0,0,0,1.093,0,1.225c-0.03,0.037-1.926,2.318-2.45,2.947c-0.328,0.382-0.529,0.875-0.529,1.414
			c0,1.18,0.954,2.146,2.128,2.17c0.114,1.092,1.035,1.947,2.158,1.947c0.361,0,0.701-0.09,1.005-0.246
			C49.039,100.462,49.707,100.865,50.477,100.865z"/>
	</g>
	<g>
		<path fill="#00AEEF" d="M50.477,35.998c0.506-0.03,0.942-0.308,1.18-0.726l-0.417-3.937c-0.011-0.15,0.097-0.286,0.249-0.309
			c0.155-0.022,0.3,0.082,0.328,0.235l0.695,3.784c0.213,0.12,0.46,0.192,0.725,0.192c0.765,0,1.388-0.59,1.451-1.342l-1.611-3.744
			c-0.064-0.147,0.003-0.319,0.15-0.383c0.142-0.062,0.307-0.001,0.376,0.136l1.741,3.387c0.006,0,0,0,0,0
			c0.81,0,1.465-0.653,1.465-1.46c0-0.307-0.027-0.568-0.184-0.782l-2.766-3.313v-1.496c0-0.166-0.117-0.307-0.295-0.307
			c-0.006,0-1.391,0-1.391,0l-1.204-1.207c-0.126-0.126-0.31-0.201-0.494-0.201s-0.367,0.075-0.493,0.201l-1.204,1.207
			c0,0-1.384,0-1.391,0c-0.177,0-0.295,0.142-0.295,0.307v1.496l-2.766,3.313c-0.156,0.214-0.184,0.476-0.184,0.782
			c0,0.807,0.656,1.46,1.466,1.46c0,0-0.006,0,0,0l1.74-3.387c0.069-0.137,0.234-0.198,0.377-0.136
			c0.147,0.064,0.214,0.236,0.15,0.383l-1.611,3.744c0.063,0.752,0.686,1.342,1.45,1.342c0.265,0,0.512-0.072,0.726-0.192
			l0.695-3.784c0.028-0.153,0.172-0.258,0.329-0.235c0.151,0.022,0.259,0.158,0.248,0.309l-0.417,3.937
			C49.535,35.69,49.972,35.968,50.477,35.998z"/>
		<path fill="#00AEEF" d="M50.477,68.075c0.506-0.03,0.942-0.308,1.18-0.726l-0.417-3.937c-0.011-0.15,0.097-0.286,0.249-0.309
			c0.155-0.022,0.3,0.082,0.328,0.235l0.695,3.784c0.213,0.12,0.46,0.192,0.725,0.192c0.765,0,1.388-0.59,1.451-1.342l-1.611-3.744
			c-0.064-0.147,0.003-0.319,0.15-0.383c0.142-0.062,0.307-0.002,0.376,0.135l1.741,3.387c0.006,0,0,0,0,0
			c0.81,0,1.465-0.652,1.465-1.459c0-0.307-0.027-0.568-0.184-0.783l-2.766-3.313v-1.495c0-0.166-0.117-0.308-0.295-0.308
			c-0.006,0-1.391,0-1.391,0l-1.204-1.207c-0.126-0.126-0.31-0.202-0.494-0.202s-0.367,0.075-0.493,0.202l-1.204,1.207
			c0,0-1.384,0-1.391,0c-0.177,0-0.295,0.142-0.295,0.308v1.495l-2.766,3.313c-0.156,0.215-0.184,0.477-0.184,0.783
			c0,0.807,0.656,1.459,1.466,1.459c0,0-0.006,0,0,0l1.74-3.387c0.069-0.137,0.234-0.197,0.377-0.135
			c0.147,0.064,0.214,0.236,0.15,0.383l-1.611,3.744c0.063,0.752,0.686,1.342,1.45,1.342c0.265,0,0.512-0.072,0.726-0.192
			l0.695-3.784c0.028-0.153,0.172-0.258,0.329-0.235c0.151,0.022,0.259,0.158,0.248,0.309l-0.417,3.937
			C49.535,67.768,49.972,68.045,50.477,68.075z"/>
		<path fill="#00AEEF" d="M21.972,68.075c0.506-0.03,0.942-0.308,1.18-0.726l-0.417-3.937c-0.011-0.15,0.097-0.286,0.248-0.309
			c0.156-0.022,0.3,0.082,0.328,0.235l0.695,3.784c0.214,0.12,0.46,0.192,0.725,0.192c0.764,0,1.388-0.59,1.451-1.342l-1.611-3.744
			c-0.064-0.147,0.003-0.319,0.15-0.383c0.143-0.062,0.308-0.002,0.376,0.135l1.741,3.387c0.006,0,0,0,0,0
			c0.81,0,1.466-0.652,1.466-1.459c0-0.307-0.027-0.568-0.184-0.783l-2.766-3.313v-1.495c0-0.166-0.118-0.308-0.295-0.308
			c-0.006,0-1.39,0-1.39,0l-1.204-1.207c-0.126-0.126-0.31-0.202-0.494-0.202c-0.183,0-0.367,0.075-0.494,0.202l-1.204,1.207
			c0,0-1.384,0-1.39,0c-0.178,0-0.295,0.142-0.295,0.308v1.495l-2.766,3.313c-0.157,0.215-0.184,0.477-0.184,0.783
			c0,0.807,0.656,1.459,1.466,1.459c0,0-0.006,0,0,0l1.741-3.387c0.069-0.137,0.233-0.197,0.376-0.135
			c0.147,0.064,0.215,0.236,0.15,0.383l-1.611,3.744c0.063,0.752,0.687,1.342,1.451,1.342c0.265,0,0.512-0.072,0.725-0.192
			l0.695-3.784c0.028-0.153,0.173-0.258,0.328-0.235c0.152,0.022,0.26,0.158,0.249,0.309l-0.417,3.937
			C21.03,67.768,21.466,68.045,21.972,68.075z"/>
		<path fill="#00AEEF" d="M78.978,68.075c0.506-0.03,0.942-0.308,1.18-0.726l-0.417-3.937c-0.011-0.15,0.097-0.286,0.249-0.309
			c0.155-0.022,0.3,0.082,0.328,0.235l0.694,3.784c0.214,0.12,0.461,0.192,0.726,0.192c0.765,0,1.388-0.59,1.451-1.342l-1.611-3.744
			c-0.065-0.147,0.003-0.319,0.15-0.383c0.142-0.062,0.307-0.002,0.376,0.135l1.74,3.387c0.007,0,0,0,0,0
			c0.81,0,1.466-0.652,1.466-1.459c0-0.307-0.027-0.568-0.184-0.783l-2.766-3.313v-1.495c0-0.166-0.117-0.308-0.295-0.308
			c-0.006,0-1.391,0-1.391,0l-1.204-1.207c-0.126-0.126-0.31-0.202-0.493-0.202s-0.367,0.075-0.493,0.202l-1.204,1.207
			c0,0-1.385,0-1.391,0c-0.178,0-0.295,0.142-0.295,0.308v1.495l-2.766,3.313c-0.156,0.215-0.184,0.477-0.184,0.783
			c0,0.807,0.656,1.459,1.466,1.459c0,0-0.006,0,0,0l1.74-3.387c0.069-0.137,0.234-0.197,0.376-0.135
			c0.147,0.064,0.214,0.236,0.15,0.383l-1.611,3.744c0.063,0.752,0.686,1.342,1.451,1.342c0.265,0,0.512-0.072,0.726-0.192
			l0.694-3.784c0.028-0.153,0.173-0.258,0.329-0.235c0.152,0.022,0.259,0.158,0.249,0.309l-0.417,3.937
			C78.036,67.768,78.472,68.045,78.978,68.075z"/>
		<path fill="#00AEEF" d="M50.477,100.151c0.506-0.029,0.942-0.307,1.18-0.725L51.24,95.49c-0.011-0.151,0.097-0.286,0.249-0.309
			c0.155-0.023,0.3,0.082,0.328,0.234l0.695,3.785c0.213,0.12,0.46,0.191,0.725,0.191c0.765,0,1.388-0.59,1.451-1.342l-1.611-3.744
			c-0.064-0.147,0.003-0.318,0.15-0.383c0.142-0.063,0.307-0.002,0.376,0.136l1.741,3.387c0.006,0,0,0,0,0
			c0.81,0,1.465-0.653,1.465-1.46c0-0.307-0.027-0.568-0.184-0.782l-2.766-3.313v-1.496c0-0.166-0.117-0.307-0.295-0.307
			c-0.006,0-1.391,0-1.391,0l-1.204-1.207c-0.126-0.127-0.31-0.202-0.494-0.202s-0.367,0.075-0.493,0.202l-1.204,1.207
			c0,0-1.384,0-1.391,0c-0.177,0-0.295,0.141-0.295,0.307v1.496l-2.766,3.313c-0.156,0.214-0.184,0.476-0.184,0.782
			c0,0.807,0.656,1.46,1.466,1.46c0,0-0.006,0,0,0l1.74-3.387c0.069-0.138,0.234-0.198,0.377-0.136
			c0.147,0.064,0.214,0.235,0.15,0.383l-1.611,3.744c0.063,0.752,0.686,1.342,1.45,1.342c0.265,0,0.512-0.071,0.726-0.191
			l0.695-3.785c0.028-0.152,0.172-0.258,0.329-0.234c0.151,0.022,0.259,0.157,0.248,0.309l-0.417,3.937
			C49.535,99.845,49.972,100.122,50.477,100.151z"/>
	</g>
	<g>
		<path fill="#DCDDDE" d="M16.07,26.091c-0.261,0.096-0.84,0.143-1.128,0.118c-0.078-0.007-0.146-0.019-0.203-0.037l-0.04-0.031
			l-0.581-2.819c-0.106-0.519-0.534-0.479-0.484,0.094l0.297,2.906c-0.078,0.149-0.51,0.862-0.922,0.862s-0.844-0.713-0.922-0.862
			l0.296-2.906c0.051-0.573-0.378-0.612-0.483-0.094l-0.582,2.819l-0.041,0.031c-0.056,0.018-0.125,0.03-0.203,0.037
			c-0.288,0.024-0.867-0.022-1.128-0.118c0.366-1.457,1.206-4.631,1.444-5.656c0.037-0.156-0.057-0.425-0.366-0.438
			c-0.028,0-0.094,0.007-0.172,0.038c-0.362,0.137-1.403,0.531-1.731,0.649l0.219-2.318c0.049-0.575-0.413-0.618-0.512-0.1
			c-0.457,2.05-0.712,4.831-2.197,5.742c0.115-0.98,1.084-8.261,1.222-9.235c0.037-0.231,0.041-0.4,0.299-0.488
			c0.185-0.063,0.351,0.012,0.519,0.181c0.009,0.006,2.441,2.231,2.441,2.231c0.094,0.119,0.252,0.175,0.399,0.131
			c0.141-0.044,0.253-0.169,0.272-0.319l0.337-2.762c0.013-0.106-0.019-0.212-0.094-0.287c-0.069-0.082-0.172-0.132-0.274-0.132
			c0,0-0.194,0-0.382,0l0.101-0.855c0.274-0.132,1.019-0.47,1.368-0.525c0.003,0,0.025-0.007,0.025-0.007
			c0.012-0.005,0.144-0.012,0.144-0.012c0.212,0,0.406,0.063,0.55,0.175c0.15,0.118,0.237,0.275,0.256,0.487l0.425,3.918
			c0.019,0.15,0.125,0.275,0.266,0.319c0.147,0.044,0.306-0.013,0.4-0.131c0,0,2.431-2.225,2.44-2.231
			c0.169-0.169,0.334-0.244,0.519-0.181c0.259,0.087,0.262,0.256,0.299,0.488c0.138,0.975,1.106,8.255,1.222,9.235
			c-1.484-0.911-1.74-3.692-2.197-5.742c-0.099-0.518-0.562-0.476-0.512,0.1l0.218,2.318c-0.328-0.118-1.368-0.512-1.73-0.649
			c-0.078-0.031-0.144-0.038-0.172-0.038c-0.31,0.013-0.403,0.281-0.366,0.438C14.864,21.46,15.705,24.634,16.07,26.091z"/>
		<path fill="#DCDDDE" d="M33.99,26.091c-0.262,0.096-0.841,0.143-1.129,0.118c-0.078-0.007-0.146-0.019-0.203-0.037l-0.04-0.031
			l-0.581-2.819c-0.106-0.519-0.534-0.479-0.484,0.094l0.297,2.906c-0.078,0.149-0.51,0.862-0.922,0.862s-0.844-0.713-0.922-0.862
			l0.296-2.906c0.05-0.573-0.378-0.612-0.484-0.094l-0.581,2.819l-0.041,0.031c-0.056,0.018-0.125,0.03-0.203,0.037
			c-0.288,0.024-0.867-0.022-1.128-0.118c0.366-1.457,1.207-4.631,1.444-5.656c0.037-0.156-0.057-0.425-0.366-0.438
			c-0.028,0-0.094,0.007-0.172,0.038c-0.362,0.137-1.403,0.531-1.731,0.649l0.219-2.318c0.049-0.575-0.414-0.618-0.512-0.1
			c-0.457,2.05-0.713,4.831-2.197,5.742c0.115-0.98,1.084-8.261,1.222-9.235c0.037-0.231,0.04-0.4,0.299-0.488
			c0.184-0.063,0.35,0.012,0.519,0.181c0.009,0.006,2.44,2.231,2.44,2.231c0.094,0.119,0.253,0.175,0.4,0.131
			c0.141-0.044,0.253-0.169,0.272-0.319l0.337-2.762c0.013-0.106-0.019-0.212-0.094-0.287c-0.068-0.082-0.172-0.132-0.274-0.132
			c0,0-0.194,0-0.381,0l0.1-0.855c0.275-0.132,1.019-0.47,1.368-0.525c0.003,0,0.025-0.007,0.025-0.007
			c0.012-0.005,0.144-0.012,0.144-0.012c0.212,0,0.406,0.063,0.55,0.175c0.15,0.118,0.237,0.275,0.256,0.487l0.425,3.918
			c0.019,0.15,0.125,0.275,0.266,0.319c0.146,0.044,0.306-0.013,0.399-0.131c0,0,2.431-2.225,2.441-2.231
			c0.168-0.169,0.334-0.244,0.519-0.181c0.259,0.087,0.262,0.256,0.299,0.488c0.138,0.975,1.106,8.255,1.222,9.235
			c-1.484-0.911-1.74-3.692-2.197-5.742c-0.099-0.518-0.562-0.476-0.512,0.1l0.218,2.318c-0.328-0.118-1.369-0.512-1.731-0.649
			c-0.078-0.031-0.144-0.038-0.172-0.038c-0.31,0.013-0.403,0.281-0.366,0.438C32.784,21.46,33.624,24.634,33.99,26.091z"/>
		<path fill="#DCDDDE" d="M16.07,47.214c-0.261,0.096-0.84,0.143-1.128,0.118c-0.078-0.007-0.146-0.019-0.203-0.037l-0.04-0.031
			l-0.581-2.819c-0.106-0.519-0.534-0.479-0.484,0.094l0.297,2.906c-0.078,0.149-0.51,0.862-0.922,0.862s-0.844-0.713-0.922-0.862
			l0.296-2.906c0.051-0.573-0.378-0.612-0.483-0.094l-0.582,2.819l-0.041,0.031c-0.056,0.018-0.125,0.03-0.203,0.037
			c-0.288,0.024-0.867-0.022-1.128-0.118c0.366-1.457,1.206-4.631,1.444-5.656c0.037-0.156-0.057-0.425-0.366-0.438
			c-0.028,0-0.094,0.007-0.172,0.038c-0.362,0.137-1.403,0.531-1.731,0.649l0.219-2.318c0.049-0.575-0.413-0.618-0.512-0.1
			c-0.457,2.05-0.712,4.831-2.197,5.742c0.115-0.98,1.084-8.261,1.222-9.235c0.037-0.231,0.041-0.4,0.299-0.488
			c0.185-0.063,0.351,0.012,0.519,0.181c0.009,0.006,2.441,2.231,2.441,2.231c0.094,0.119,0.252,0.175,0.399,0.131
			c0.141-0.044,0.253-0.169,0.272-0.319l0.337-2.762c0.013-0.106-0.019-0.212-0.094-0.287c-0.069-0.082-0.172-0.132-0.274-0.132
			c0,0-0.194,0-0.382,0l0.101-0.855c0.274-0.132,1.019-0.47,1.368-0.525c0.003,0,0.025-0.007,0.025-0.007
			c0.012-0.005,0.144-0.012,0.144-0.012c0.212,0,0.406,0.063,0.55,0.175c0.15,0.118,0.237,0.275,0.256,0.487l0.425,3.918
			c0.019,0.15,0.125,0.275,0.266,0.319c0.147,0.044,0.306-0.013,0.4-0.131c0,0,2.431-2.225,2.44-2.231
			c0.169-0.169,0.334-0.244,0.519-0.181c0.259,0.087,0.262,0.256,0.299,0.488c0.138,0.975,1.106,8.255,1.222,9.235
			c-1.484-0.911-1.74-3.692-2.197-5.742c-0.099-0.518-0.562-0.476-0.512,0.1l0.218,2.318c-0.328-0.118-1.368-0.512-1.73-0.649
			c-0.078-0.031-0.144-0.038-0.172-0.038c-0.31,0.013-0.403,0.281-0.366,0.438C14.864,42.583,15.705,45.757,16.07,47.214z"/>
		<path fill="#DCDDDE" d="M33.99,47.214c-0.262,0.096-0.841,0.143-1.129,0.118c-0.078-0.007-0.146-0.019-0.203-0.037l-0.04-0.031
			l-0.581-2.819c-0.106-0.519-0.534-0.479-0.484,0.094l0.297,2.906c-0.078,0.149-0.51,0.862-0.922,0.862s-0.844-0.713-0.922-0.862
			l0.296-2.906c0.05-0.573-0.378-0.612-0.484-0.094l-0.581,2.819l-0.041,0.031c-0.056,0.018-0.125,0.03-0.203,0.037
			c-0.288,0.024-0.867-0.022-1.128-0.118c0.366-1.457,1.207-4.631,1.444-5.656c0.037-0.156-0.057-0.425-0.366-0.438
			c-0.028,0-0.094,0.007-0.172,0.038c-0.362,0.137-1.403,0.531-1.731,0.649l0.219-2.318c0.049-0.575-0.414-0.618-0.512-0.1
			c-0.457,2.05-0.713,4.831-2.197,5.742c0.115-0.98,1.084-8.261,1.222-9.235c0.037-0.231,0.04-0.4,0.299-0.488
			c0.184-0.063,0.35,0.012,0.519,0.181c0.009,0.006,2.44,2.231,2.44,2.231c0.094,0.119,0.253,0.175,0.4,0.131
			c0.141-0.044,0.253-0.169,0.272-0.319l0.337-2.762c0.013-0.106-0.019-0.212-0.094-0.287c-0.068-0.082-0.172-0.132-0.274-0.132
			c0,0-0.194,0-0.381,0l0.1-0.855c0.275-0.132,1.019-0.47,1.368-0.525c0.003,0,0.025-0.007,0.025-0.007
			c0.012-0.005,0.144-0.012,0.144-0.012c0.212,0,0.406,0.063,0.55,0.175c0.15,0.118,0.237,0.275,0.256,0.487l0.425,3.918
			c0.019,0.15,0.125,0.275,0.266,0.319c0.146,0.044,0.306-0.013,0.399-0.131c0,0,2.431-2.225,2.441-2.231
			c0.168-0.169,0.334-0.244,0.519-0.181c0.259,0.087,0.262,0.256,0.299,0.488c0.138,0.975,1.106,8.255,1.222,9.235
			c-1.484-0.911-1.74-3.692-2.197-5.742c-0.099-0.518-0.562-0.476-0.512,0.1l0.218,2.318c-0.328-0.118-1.369-0.512-1.731-0.649
			c-0.078-0.031-0.144-0.038-0.172-0.038c-0.31,0.013-0.403,0.281-0.366,0.438C32.784,42.583,33.624,45.757,33.99,47.214z"/>
		<path fill="#DCDDDE" d="M73.077,26.091c-0.261,0.096-0.84,0.143-1.128,0.118c-0.078-0.007-0.147-0.019-0.203-0.037l-0.04-0.031
			l-0.582-2.819c-0.106-0.519-0.534-0.479-0.484,0.094l0.296,2.906c-0.078,0.149-0.51,0.862-0.922,0.862s-0.844-0.713-0.922-0.862
			l0.296-2.906c0.05-0.573-0.378-0.612-0.484-0.094l-0.582,2.819l-0.04,0.031c-0.056,0.018-0.125,0.03-0.203,0.037
			c-0.288,0.024-0.867-0.022-1.128-0.118c0.365-1.457,1.206-4.631,1.443-5.656c0.037-0.156-0.057-0.425-0.365-0.438
			c-0.028,0-0.094,0.007-0.172,0.038c-0.362,0.137-1.403,0.531-1.731,0.649l0.219-2.318c0.049-0.575-0.414-0.618-0.513-0.1
			c-0.456,2.05-0.712,4.831-2.196,5.742c0.115-0.98,1.084-8.261,1.222-9.235c0.037-0.231,0.041-0.4,0.3-0.488
			c0.185-0.063,0.35,0.012,0.519,0.181c0.01,0.006,2.441,2.231,2.441,2.231c0.094,0.119,0.252,0.175,0.4,0.131
			c0.141-0.044,0.253-0.169,0.272-0.319l0.337-2.762c0.012-0.106-0.019-0.212-0.094-0.287c-0.069-0.082-0.172-0.132-0.275-0.132
			c0,0-0.194,0-0.381,0l0.1-0.855c0.275-0.132,1.019-0.47,1.369-0.525c0.003,0,0.025-0.007,0.025-0.007
			c0.012-0.005,0.143-0.012,0.143-0.012c0.212,0,0.407,0.063,0.55,0.175c0.149,0.118,0.237,0.275,0.256,0.487l0.425,3.918
			c0.019,0.15,0.125,0.275,0.266,0.319c0.147,0.044,0.307-0.013,0.4-0.131c0,0,2.431-2.225,2.44-2.231
			c0.169-0.169,0.334-0.244,0.519-0.181c0.259,0.087,0.263,0.256,0.3,0.488c0.138,0.975,1.106,8.255,1.222,9.235
			c-1.483-0.911-1.74-3.692-2.196-5.742c-0.099-0.518-0.562-0.476-0.513,0.1l0.219,2.318c-0.328-0.118-1.368-0.512-1.731-0.649
			c-0.078-0.031-0.144-0.038-0.172-0.038c-0.309,0.013-0.403,0.281-0.366,0.438C71.871,21.46,72.711,24.634,73.077,26.091z"/>
		<path fill="#DCDDDE" d="M90.996,26.091c-0.261,0.096-0.84,0.143-1.128,0.118c-0.078-0.007-0.146-0.019-0.203-0.037l-0.04-0.031
			l-0.581-2.819c-0.106-0.519-0.534-0.479-0.484,0.094l0.297,2.906c-0.078,0.149-0.51,0.862-0.922,0.862s-0.844-0.713-0.922-0.862
			l0.296-2.906c0.051-0.573-0.378-0.612-0.483-0.094l-0.582,2.819l-0.041,0.031c-0.056,0.018-0.125,0.03-0.203,0.037
			c-0.288,0.024-0.867-0.022-1.128-0.118c0.366-1.457,1.206-4.631,1.444-5.656c0.037-0.156-0.057-0.425-0.366-0.438
			c-0.028,0-0.094,0.007-0.172,0.038c-0.362,0.137-1.403,0.531-1.731,0.649l0.219-2.318c0.049-0.575-0.413-0.618-0.512-0.1
			c-0.457,2.05-0.712,4.831-2.197,5.742c0.115-0.98,1.084-8.261,1.222-9.235c0.037-0.231,0.041-0.4,0.299-0.488
			c0.185-0.063,0.351,0.012,0.519,0.181c0.009,0.006,2.441,2.231,2.441,2.231c0.094,0.119,0.252,0.175,0.399,0.131
			c0.141-0.044,0.253-0.169,0.272-0.319l0.337-2.762c0.013-0.106-0.019-0.212-0.094-0.287c-0.069-0.082-0.172-0.132-0.274-0.132
			c0,0-0.194,0-0.382,0l0.101-0.855c0.274-0.132,1.019-0.47,1.368-0.525c0.003,0,0.025-0.007,0.025-0.007
			c0.012-0.005,0.144-0.012,0.144-0.012c0.212,0,0.406,0.063,0.55,0.175c0.15,0.118,0.237,0.275,0.256,0.487l0.425,3.918
			c0.019,0.15,0.125,0.275,0.266,0.319c0.147,0.044,0.306-0.013,0.4-0.131c0,0,2.431-2.225,2.44-2.231
			c0.169-0.169,0.334-0.244,0.519-0.181c0.259,0.087,0.262,0.256,0.299,0.488c0.138,0.975,1.106,8.255,1.222,9.235
			c-1.484-0.911-1.74-3.692-2.197-5.742c-0.099-0.518-0.562-0.476-0.512,0.1l0.218,2.318c-0.328-0.118-1.368-0.512-1.73-0.649
			c-0.078-0.031-0.144-0.038-0.172-0.038c-0.31,0.013-0.403,0.281-0.366,0.438C89.79,21.46,90.63,24.634,90.996,26.091z"/>
		<path fill="#DCDDDE" d="M73.077,47.214c-0.261,0.096-0.84,0.143-1.128,0.118c-0.078-0.007-0.147-0.019-0.203-0.037l-0.04-0.031
			l-0.582-2.819c-0.106-0.519-0.534-0.479-0.484,0.094l0.296,2.906c-0.078,0.149-0.51,0.862-0.922,0.862s-0.844-0.713-0.922-0.862
			l0.296-2.906c0.05-0.573-0.378-0.612-0.484-0.094l-0.582,2.819l-0.04,0.031c-0.056,0.018-0.125,0.03-0.203,0.037
			c-0.288,0.024-0.867-0.022-1.128-0.118c0.365-1.457,1.206-4.631,1.443-5.656c0.037-0.156-0.057-0.425-0.365-0.438
			c-0.028,0-0.094,0.007-0.172,0.038c-0.362,0.137-1.403,0.531-1.731,0.649l0.219-2.318c0.049-0.575-0.414-0.618-0.513-0.1
			c-0.456,2.05-0.712,4.831-2.196,5.742c0.115-0.98,1.084-8.261,1.222-9.235c0.037-0.231,0.041-0.4,0.3-0.488
			c0.185-0.063,0.35,0.012,0.519,0.181c0.01,0.006,2.441,2.231,2.441,2.231c0.094,0.119,0.252,0.175,0.4,0.131
			c0.141-0.044,0.253-0.169,0.272-0.319l0.337-2.762c0.012-0.106-0.019-0.212-0.094-0.287c-0.069-0.082-0.172-0.132-0.275-0.132
			c0,0-0.194,0-0.381,0l0.1-0.855c0.275-0.132,1.019-0.47,1.369-0.525c0.003,0,0.025-0.007,0.025-0.007
			c0.012-0.005,0.143-0.012,0.143-0.012c0.212,0,0.407,0.063,0.55,0.175c0.149,0.118,0.237,0.275,0.256,0.487l0.425,3.918
			c0.019,0.15,0.125,0.275,0.266,0.319c0.147,0.044,0.307-0.013,0.4-0.131c0,0,2.431-2.225,2.44-2.231
			c0.169-0.169,0.334-0.244,0.519-0.181c0.259,0.087,0.263,0.256,0.3,0.488c0.138,0.975,1.106,8.255,1.222,9.235
			c-1.483-0.911-1.74-3.692-2.196-5.742c-0.099-0.518-0.562-0.476-0.513,0.1l0.219,2.318c-0.328-0.118-1.368-0.512-1.731-0.649
			c-0.078-0.031-0.144-0.038-0.172-0.038c-0.309,0.013-0.403,0.281-0.366,0.438C71.871,42.583,72.711,45.757,73.077,47.214z"/>
		<path fill="#DCDDDE" d="M90.996,47.214c-0.261,0.096-0.84,0.143-1.128,0.118c-0.078-0.007-0.146-0.019-0.203-0.037l-0.04-0.031
			l-0.581-2.819c-0.106-0.519-0.534-0.479-0.484,0.094l0.297,2.906c-0.078,0.149-0.51,0.862-0.922,0.862s-0.844-0.713-0.922-0.862
			l0.296-2.906c0.051-0.573-0.378-0.612-0.483-0.094l-0.582,2.819l-0.041,0.031c-0.056,0.018-0.125,0.03-0.203,0.037
			c-0.288,0.024-0.867-0.022-1.128-0.118c0.366-1.457,1.206-4.631,1.444-5.656c0.037-0.156-0.057-0.425-0.366-0.438
			c-0.028,0-0.094,0.007-0.172,0.038c-0.362,0.137-1.403,0.531-1.731,0.649l0.219-2.318c0.049-0.575-0.413-0.618-0.512-0.1
			c-0.457,2.05-0.712,4.831-2.197,5.742c0.115-0.98,1.084-8.261,1.222-9.235c0.037-0.231,0.041-0.4,0.299-0.488
			c0.185-0.063,0.351,0.012,0.519,0.181c0.009,0.006,2.441,2.231,2.441,2.231c0.094,0.119,0.252,0.175,0.399,0.131
			c0.141-0.044,0.253-0.169,0.272-0.319l0.337-2.762c0.013-0.106-0.019-0.212-0.094-0.287c-0.069-0.082-0.172-0.132-0.274-0.132
			c0,0-0.194,0-0.382,0l0.101-0.855c0.274-0.132,1.019-0.47,1.368-0.525c0.003,0,0.025-0.007,0.025-0.007
			c0.012-0.005,0.144-0.012,0.144-0.012c0.212,0,0.406,0.063,0.55,0.175c0.15,0.118,0.237,0.275,0.256,0.487l0.425,3.918
			c0.019,0.15,0.125,0.275,0.266,0.319c0.147,0.044,0.306-0.013,0.4-0.131c0,0,2.431-2.225,2.44-2.231
			c0.169-0.169,0.334-0.244,0.519-0.181c0.259,0.087,0.262,0.256,0.299,0.488c0.138,0.975,1.106,8.255,1.222,9.235
			c-1.484-0.911-1.74-3.692-2.197-5.742c-0.099-0.518-0.562-0.476-0.512,0.1l0.218,2.318c-0.328-0.118-1.368-0.512-1.73-0.649
			c-0.078-0.031-0.144-0.038-0.172-0.038c-0.31,0.013-0.403,0.281-0.366,0.438C89.79,42.583,90.63,45.757,90.996,47.214z"/>
		<path fill="#DCDDDE" d="M16.07,90.245c-0.261,0.096-0.84,0.143-1.128,0.118c-0.078-0.007-0.146-0.019-0.203-0.037l-0.04-0.031
			l-0.581-2.818c-0.106-0.519-0.534-0.479-0.484,0.094l0.297,2.906c-0.078,0.149-0.51,0.862-0.922,0.862s-0.844-0.713-0.922-0.862
			l0.296-2.906c0.051-0.573-0.378-0.612-0.483-0.094l-0.582,2.818l-0.041,0.031c-0.056,0.019-0.125,0.03-0.203,0.037
			c-0.288,0.024-0.867-0.022-1.128-0.118c0.366-1.457,1.206-4.631,1.444-5.656c0.037-0.156-0.057-0.425-0.366-0.438
			c-0.028,0-0.094,0.007-0.172,0.038c-0.362,0.137-1.403,0.531-1.731,0.649l0.219-2.318c0.049-0.575-0.413-0.618-0.512-0.1
			c-0.457,2.05-0.712,4.831-2.197,5.742c0.115-0.98,1.084-8.261,1.222-9.235c0.037-0.231,0.041-0.4,0.299-0.488
			c0.185-0.063,0.351,0.013,0.519,0.182c0.009,0.006,2.441,2.23,2.441,2.23c0.094,0.119,0.252,0.176,0.399,0.132
			c0.141-0.044,0.253-0.169,0.272-0.319l0.337-2.762c0.013-0.106-0.019-0.213-0.094-0.287c-0.069-0.082-0.172-0.132-0.274-0.132
			c0,0-0.194,0-0.382,0l0.101-0.855c0.274-0.132,1.019-0.47,1.368-0.525c0.003,0,0.025-0.007,0.025-0.007
			c0.012-0.006,0.144-0.012,0.144-0.012c0.212,0,0.406,0.063,0.55,0.175c0.15,0.118,0.237,0.275,0.256,0.487l0.425,3.918
			c0.019,0.15,0.125,0.275,0.266,0.319c0.147,0.044,0.306-0.013,0.4-0.132c0,0,2.431-2.225,2.44-2.23
			c0.169-0.169,0.334-0.244,0.519-0.182c0.259,0.088,0.262,0.257,0.299,0.488c0.138,0.975,1.106,8.255,1.222,9.235
			c-1.484-0.911-1.74-3.692-2.197-5.742c-0.099-0.519-0.562-0.476-0.512,0.1l0.218,2.318c-0.328-0.118-1.368-0.513-1.73-0.649
			c-0.078-0.031-0.144-0.038-0.172-0.038c-0.31,0.013-0.403,0.281-0.366,0.438C14.864,85.614,15.705,88.788,16.07,90.245z"/>
		<path fill="#DCDDDE" d="M33.99,90.245c-0.262,0.096-0.841,0.143-1.129,0.118c-0.078-0.007-0.146-0.019-0.203-0.037l-0.04-0.031
			l-0.581-2.818c-0.106-0.519-0.534-0.479-0.484,0.094l0.297,2.906c-0.078,0.149-0.51,0.862-0.922,0.862s-0.844-0.713-0.922-0.862
			l0.296-2.906c0.05-0.573-0.378-0.612-0.484-0.094l-0.581,2.818l-0.041,0.031c-0.056,0.019-0.125,0.03-0.203,0.037
			c-0.288,0.024-0.867-0.022-1.128-0.118c0.366-1.457,1.207-4.631,1.444-5.656c0.037-0.156-0.057-0.425-0.366-0.438
			c-0.028,0-0.094,0.007-0.172,0.038c-0.362,0.137-1.403,0.531-1.731,0.649l0.219-2.318c0.049-0.575-0.414-0.618-0.512-0.1
			c-0.457,2.05-0.713,4.831-2.197,5.742c0.115-0.98,1.084-8.261,1.222-9.235c0.037-0.231,0.04-0.4,0.299-0.488
			c0.184-0.063,0.35,0.013,0.519,0.182c0.009,0.006,2.44,2.23,2.44,2.23c0.094,0.119,0.253,0.176,0.4,0.132
			c0.141-0.044,0.253-0.169,0.272-0.319l0.337-2.762c0.013-0.106-0.019-0.213-0.094-0.287c-0.068-0.082-0.172-0.132-0.274-0.132
			c0,0-0.194,0-0.381,0l0.1-0.855c0.275-0.132,1.019-0.47,1.368-0.525c0.003,0,0.025-0.007,0.025-0.007
			c0.012-0.006,0.144-0.012,0.144-0.012c0.212,0,0.406,0.063,0.55,0.175c0.15,0.118,0.237,0.275,0.256,0.487l0.425,3.918
			c0.019,0.15,0.125,0.275,0.266,0.319c0.146,0.044,0.306-0.013,0.399-0.132c0,0,2.431-2.225,2.441-2.23
			c0.168-0.169,0.334-0.244,0.519-0.182c0.259,0.088,0.262,0.257,0.299,0.488c0.138,0.975,1.106,8.255,1.222,9.235
			c-1.484-0.911-1.74-3.692-2.197-5.742c-0.099-0.519-0.562-0.476-0.512,0.1l0.218,2.318c-0.328-0.118-1.369-0.513-1.731-0.649
			c-0.078-0.031-0.144-0.038-0.172-0.038c-0.31,0.013-0.403,0.281-0.366,0.438C32.784,85.614,33.624,88.788,33.99,90.245z"/>
		<path fill="#DCDDDE" d="M16.07,111.368c-0.261,0.096-0.84,0.143-1.128,0.118c-0.078-0.007-0.146-0.019-0.203-0.037l-0.04-0.031
			l-0.581-2.818c-0.106-0.52-0.534-0.48-0.484,0.094l0.297,2.906c-0.078,0.149-0.51,0.862-0.922,0.862s-0.844-0.713-0.922-0.862
			l0.296-2.906c0.051-0.574-0.378-0.613-0.483-0.094l-0.582,2.818l-0.041,0.031c-0.056,0.019-0.125,0.03-0.203,0.037
			c-0.288,0.024-0.867-0.022-1.128-0.118c0.366-1.457,1.206-4.631,1.444-5.656c0.037-0.156-0.057-0.425-0.366-0.438
			c-0.028,0-0.094,0.007-0.172,0.038c-0.362,0.137-1.403,0.531-1.731,0.649l0.219-2.318c0.049-0.575-0.413-0.618-0.512-0.1
			c-0.457,2.05-0.712,4.831-2.197,5.742c0.115-0.98,1.084-8.261,1.222-9.235c0.037-0.231,0.041-0.4,0.299-0.488
			c0.185-0.063,0.351,0.013,0.519,0.182c0.009,0.006,2.441,2.23,2.441,2.23c0.094,0.119,0.252,0.176,0.399,0.132
			c0.141-0.044,0.253-0.169,0.272-0.319l0.337-2.762c0.013-0.106-0.019-0.213-0.094-0.287c-0.069-0.082-0.172-0.132-0.274-0.132
			c0,0-0.194,0-0.382,0l0.101-0.855c0.274-0.132,1.019-0.47,1.368-0.525c0.003,0,0.025-0.007,0.025-0.007
			c0.012-0.006,0.144-0.012,0.144-0.012c0.212,0,0.406,0.063,0.55,0.175c0.15,0.118,0.237,0.275,0.256,0.487l0.425,3.918
			c0.019,0.15,0.125,0.275,0.266,0.319c0.147,0.044,0.306-0.013,0.4-0.132c0,0,2.431-2.225,2.44-2.23
			c0.169-0.169,0.334-0.244,0.519-0.182c0.259,0.088,0.262,0.257,0.299,0.488c0.138,0.975,1.106,8.255,1.222,9.235
			c-1.484-0.911-1.74-3.692-2.197-5.742c-0.099-0.519-0.562-0.476-0.512,0.1l0.218,2.318c-0.328-0.118-1.368-0.513-1.73-0.649
			c-0.078-0.031-0.144-0.038-0.172-0.038c-0.31,0.013-0.403,0.281-0.366,0.438C14.864,106.737,15.705,109.911,16.07,111.368z"/>
		<path fill="#DCDDDE" d="M33.99,111.368c-0.262,0.096-0.841,0.143-1.129,0.118c-0.078-0.007-0.146-0.019-0.203-0.037l-0.04-0.031
			l-0.581-2.818c-0.106-0.52-0.534-0.48-0.484,0.094l0.297,2.906c-0.078,0.149-0.51,0.862-0.922,0.862s-0.844-0.713-0.922-0.862
			l0.296-2.906c0.05-0.574-0.378-0.613-0.484-0.094l-0.581,2.818l-0.041,0.031c-0.056,0.019-0.125,0.03-0.203,0.037
			c-0.288,0.024-0.867-0.022-1.128-0.118c0.366-1.457,1.207-4.631,1.444-5.656c0.037-0.156-0.057-0.425-0.366-0.438
			c-0.028,0-0.094,0.007-0.172,0.038c-0.362,0.137-1.403,0.531-1.731,0.649l0.219-2.318c0.049-0.575-0.414-0.618-0.512-0.1
			c-0.457,2.05-0.713,4.831-2.197,5.742c0.115-0.98,1.084-8.261,1.222-9.235c0.037-0.231,0.04-0.4,0.299-0.488
			c0.184-0.063,0.35,0.013,0.519,0.182c0.009,0.006,2.44,2.23,2.44,2.23c0.094,0.119,0.253,0.176,0.4,0.132
			c0.141-0.044,0.253-0.169,0.272-0.319l0.337-2.762c0.013-0.106-0.019-0.213-0.094-0.287c-0.068-0.082-0.172-0.132-0.274-0.132
			c0,0-0.194,0-0.381,0l0.1-0.855c0.275-0.132,1.019-0.47,1.368-0.525c0.003,0,0.025-0.007,0.025-0.007
			c0.012-0.006,0.144-0.012,0.144-0.012c0.212,0,0.406,0.063,0.55,0.175c0.15,0.118,0.237,0.275,0.256,0.487l0.425,3.918
			c0.019,0.15,0.125,0.275,0.266,0.319c0.146,0.044,0.306-0.013,0.399-0.132c0,0,2.431-2.225,2.441-2.23
			c0.168-0.169,0.334-0.244,0.519-0.182c0.259,0.088,0.262,0.257,0.299,0.488c0.138,0.975,1.106,8.255,1.222,9.235
			c-1.484-0.911-1.74-3.692-2.197-5.742c-0.099-0.519-0.562-0.476-0.512,0.1l0.218,2.318c-0.328-0.118-1.369-0.513-1.731-0.649
			c-0.078-0.031-0.144-0.038-0.172-0.038c-0.31,0.013-0.403,0.281-0.366,0.438C32.784,106.737,33.624,109.911,33.99,111.368z"/>
		<path fill="#DCDDDE" d="M73.077,90.245c-0.261,0.096-0.84,0.143-1.128,0.118c-0.078-0.007-0.147-0.019-0.203-0.037l-0.04-0.031
			l-0.582-2.818c-0.106-0.519-0.534-0.479-0.484,0.094l0.296,2.906c-0.078,0.149-0.51,0.862-0.922,0.862s-0.844-0.713-0.922-0.862
			l0.296-2.906c0.05-0.573-0.378-0.612-0.484-0.094l-0.582,2.818l-0.04,0.031c-0.056,0.019-0.125,0.03-0.203,0.037
			c-0.288,0.024-0.867-0.022-1.128-0.118c0.365-1.457,1.206-4.631,1.443-5.656c0.037-0.156-0.057-0.425-0.365-0.438
			c-0.028,0-0.094,0.007-0.172,0.038c-0.362,0.137-1.403,0.531-1.731,0.649l0.219-2.318c0.049-0.575-0.414-0.618-0.513-0.1
			c-0.456,2.05-0.712,4.831-2.196,5.742c0.115-0.98,1.084-8.261,1.222-9.235c0.037-0.231,0.041-0.4,0.3-0.488
			c0.185-0.063,0.35,0.013,0.519,0.182c0.01,0.006,2.441,2.23,2.441,2.23c0.094,0.119,0.252,0.176,0.4,0.132
			c0.141-0.044,0.253-0.169,0.272-0.319l0.337-2.762c0.012-0.106-0.019-0.213-0.094-0.287c-0.069-0.082-0.172-0.132-0.275-0.132
			c0,0-0.194,0-0.381,0l0.1-0.855c0.275-0.132,1.019-0.47,1.369-0.525c0.003,0,0.025-0.007,0.025-0.007
			c0.012-0.006,0.143-0.012,0.143-0.012c0.212,0,0.407,0.063,0.55,0.175c0.149,0.118,0.237,0.275,0.256,0.487l0.425,3.918
			c0.019,0.15,0.125,0.275,0.266,0.319c0.147,0.044,0.307-0.013,0.4-0.132c0,0,2.431-2.225,2.44-2.23
			c0.169-0.169,0.334-0.244,0.519-0.182c0.259,0.088,0.263,0.257,0.3,0.488c0.138,0.975,1.106,8.255,1.222,9.235
			c-1.483-0.911-1.74-3.692-2.196-5.742c-0.099-0.519-0.562-0.476-0.513,0.1l0.219,2.318c-0.328-0.118-1.368-0.513-1.731-0.649
			c-0.078-0.031-0.144-0.038-0.172-0.038c-0.309,0.013-0.403,0.281-0.366,0.438C71.871,85.614,72.711,88.788,73.077,90.245z"/>
		<path fill="#DCDDDE" d="M90.996,90.245c-0.261,0.096-0.84,0.143-1.128,0.118c-0.078-0.007-0.146-0.019-0.203-0.037l-0.04-0.031
			l-0.581-2.818c-0.106-0.519-0.534-0.479-0.484,0.094l0.297,2.906c-0.078,0.149-0.51,0.862-0.922,0.862s-0.844-0.713-0.922-0.862
			l0.296-2.906c0.051-0.573-0.378-0.612-0.483-0.094l-0.582,2.818l-0.041,0.031c-0.056,0.019-0.125,0.03-0.203,0.037
			c-0.288,0.024-0.867-0.022-1.128-0.118c0.366-1.457,1.206-4.631,1.444-5.656c0.037-0.156-0.057-0.425-0.366-0.438
			c-0.028,0-0.094,0.007-0.172,0.038c-0.362,0.137-1.403,0.531-1.731,0.649l0.219-2.318c0.049-0.575-0.413-0.618-0.512-0.1
			c-0.457,2.05-0.712,4.831-2.197,5.742c0.115-0.98,1.084-8.261,1.222-9.235c0.037-0.231,0.041-0.4,0.299-0.488
			c0.185-0.063,0.351,0.013,0.519,0.182c0.009,0.006,2.441,2.23,2.441,2.23c0.094,0.119,0.252,0.176,0.399,0.132
			c0.141-0.044,0.253-0.169,0.272-0.319l0.337-2.762c0.013-0.106-0.019-0.213-0.094-0.287c-0.069-0.082-0.172-0.132-0.274-0.132
			c0,0-0.194,0-0.382,0l0.101-0.855c0.274-0.132,1.019-0.47,1.368-0.525c0.003,0,0.025-0.007,0.025-0.007
			c0.012-0.006,0.144-0.012,0.144-0.012c0.212,0,0.406,0.063,0.55,0.175c0.15,0.118,0.237,0.275,0.256,0.487l0.425,3.918
			c0.019,0.15,0.125,0.275,0.266,0.319c0.147,0.044,0.306-0.013,0.4-0.132c0,0,2.431-2.225,2.44-2.23
			c0.169-0.169,0.334-0.244,0.519-0.182c0.259,0.088,0.262,0.257,0.299,0.488c0.138,0.975,1.106,8.255,1.222,9.235
			c-1.484-0.911-1.74-3.692-2.197-5.742c-0.099-0.519-0.562-0.476-0.512,0.1l0.218,2.318c-0.328-0.118-1.368-0.513-1.73-0.649
			c-0.078-0.031-0.144-0.038-0.172-0.038c-0.31,0.013-0.403,0.281-0.366,0.438C89.79,85.614,90.63,88.788,90.996,90.245z"/>
		<path fill="#DCDDDE" d="M73.077,111.368c-0.261,0.096-0.84,0.143-1.128,0.118c-0.078-0.007-0.147-0.019-0.203-0.037l-0.04-0.031
			l-0.582-2.818c-0.106-0.52-0.534-0.48-0.484,0.094l0.296,2.906c-0.078,0.149-0.51,0.862-0.922,0.862s-0.844-0.713-0.922-0.862
			l0.296-2.906c0.05-0.574-0.378-0.613-0.484-0.094l-0.582,2.818l-0.04,0.031c-0.056,0.019-0.125,0.03-0.203,0.037
			c-0.288,0.024-0.867-0.022-1.128-0.118c0.365-1.457,1.206-4.631,1.443-5.656c0.037-0.156-0.057-0.425-0.365-0.438
			c-0.028,0-0.094,0.007-0.172,0.038c-0.362,0.137-1.403,0.531-1.731,0.649l0.219-2.318c0.049-0.575-0.414-0.618-0.513-0.1
			c-0.456,2.05-0.712,4.831-2.196,5.742c0.115-0.98,1.084-8.261,1.222-9.235c0.037-0.231,0.041-0.4,0.3-0.488
			c0.185-0.063,0.35,0.013,0.519,0.182c0.01,0.006,2.441,2.23,2.441,2.23c0.094,0.119,0.252,0.176,0.4,0.132
			c0.141-0.044,0.253-0.169,0.272-0.319l0.337-2.762c0.012-0.106-0.019-0.213-0.094-0.287c-0.069-0.082-0.172-0.132-0.275-0.132
			c0,0-0.194,0-0.381,0l0.1-0.855c0.275-0.132,1.019-0.47,1.369-0.525c0.003,0,0.025-0.007,0.025-0.007
			c0.012-0.006,0.143-0.012,0.143-0.012c0.212,0,0.407,0.063,0.55,0.175c0.149,0.118,0.237,0.275,0.256,0.487l0.425,3.918
			c0.019,0.15,0.125,0.275,0.266,0.319c0.147,0.044,0.307-0.013,0.4-0.132c0,0,2.431-2.225,2.44-2.23
			c0.169-0.169,0.334-0.244,0.519-0.182c0.259,0.088,0.263,0.257,0.3,0.488c0.138,0.975,1.106,8.255,1.222,9.235
			c-1.483-0.911-1.74-3.692-2.196-5.742c-0.099-0.519-0.562-0.476-0.513,0.1l0.219,2.318c-0.328-0.118-1.368-0.513-1.731-0.649
			c-0.078-0.031-0.144-0.038-0.172-0.038c-0.309,0.013-0.403,0.281-0.366,0.438C71.871,106.737,72.711,109.911,73.077,111.368z"/>
		<path fill="#DCDDDE" d="M90.996,111.368c-0.261,0.096-0.84,0.143-1.128,0.118c-0.078-0.007-0.146-0.019-0.203-0.037l-0.04-0.031
			l-0.581-2.818c-0.106-0.52-0.534-0.48-0.484,0.094l0.297,2.906c-0.078,0.149-0.51,0.862-0.922,0.862s-0.844-0.713-0.922-0.862
			l0.296-2.906c0.051-0.574-0.378-0.613-0.483-0.094l-0.582,2.818l-0.041,0.031c-0.056,0.019-0.125,0.03-0.203,0.037
			c-0.288,0.024-0.867-0.022-1.128-0.118c0.366-1.457,1.206-4.631,1.444-5.656c0.037-0.156-0.057-0.425-0.366-0.438
			c-0.028,0-0.094,0.007-0.172,0.038c-0.362,0.137-1.403,0.531-1.731,0.649l0.219-2.318c0.049-0.575-0.413-0.618-0.512-0.1
			c-0.457,2.05-0.712,4.831-2.197,5.742c0.115-0.98,1.084-8.261,1.222-9.235c0.037-0.231,0.041-0.4,0.299-0.488
			c0.185-0.063,0.351,0.013,0.519,0.182c0.009,0.006,2.441,2.23,2.441,2.23c0.094,0.119,0.252,0.176,0.399,0.132
			c0.141-0.044,0.253-0.169,0.272-0.319l0.337-2.762c0.013-0.106-0.019-0.213-0.094-0.287c-0.069-0.082-0.172-0.132-0.274-0.132
			c0,0-0.194,0-0.382,0l0.101-0.855c0.274-0.132,1.019-0.47,1.368-0.525c0.003,0,0.025-0.007,0.025-0.007
			c0.012-0.006,0.144-0.012,0.144-0.012c0.212,0,0.406,0.063,0.55,0.175c0.15,0.118,0.237,0.275,0.256,0.487l0.425,3.918
			c0.019,0.15,0.125,0.275,0.266,0.319c0.147,0.044,0.306-0.013,0.4-0.132c0,0,2.431-2.225,2.44-2.23
			c0.169-0.169,0.334-0.244,0.519-0.182c0.259,0.088,0.262,0.257,0.299,0.488c0.138,0.975,1.106,8.255,1.222,9.235
			c-1.484-0.911-1.74-3.692-2.197-5.742c-0.099-0.519-0.562-0.476-0.512,0.1l0.218,2.318c-0.328-0.118-1.368-0.513-1.73-0.649
			c-0.078-0.031-0.144-0.038-0.172-0.038c-0.31,0.013-0.403,0.281-0.366,0.438C89.79,106.737,90.63,109.911,90.996,111.368z"/>
	</g>
</g>
<rect x="-24.838" y="-39.5" fill="none" width="360" height="216"/>
<g>
	<path d="M4.461,142.483l2.552-6.781l2.575,6.781H4.461z M15.336,148.353c-0.976-0.074-1.288-0.344-1.997-2.145L7.813,132.2H7.369
		L2.752,144.31c-0.421,1.084-1.11,2.885-1.621,3.502c-0.399,0.467-0.776,0.518-1.132,0.541v0.469h4.394v-0.469
		c-0.465,0-1.508,0-1.508-1.033c0-0.273,0.066-0.617,0.177-0.939l1.021-2.885h5.815l0.91,2.367c0.133,0.346,0.421,1.16,0.421,1.553
		c0,0.914-0.732,0.938-1.553,0.938v0.469h5.659V148.353z"/>
	<path d="M25.213,147.935c-1.199,0.344-2.042,0.689-3.085,1.109l-0.043-0.049v-2.047l-0.956,1.061
		c-0.865,0.961-1.93,1.061-2.331,1.061c-0.91,0-2.64-0.592-2.64-3.207v-6.214c0-1.479-0.71-1.529-1.376-1.579v-0.345h3.24v8.04
		c0,0.346,0.2,1.873,1.665,1.873c0.666,0,1.332-0.344,1.931-0.889c0.2-0.195,0.354-0.441,0.354-1.256v-5.795
		c0-0.987-0.088-1.506-1.642-1.555v-0.419h3.506v8.46c0,0.887,0.045,1.453,1.376,1.404V147.935z"/>
	<path d="M26.988,140.585c0-1.455-0.421-1.479-0.777-1.479c-0.31,0-0.598,0.05-0.931,0.099v-0.395
		c1.154-0.395,2.308-0.838,3.462-1.332l0.111,0.074v11.27c0,2.887-0.91,5.377-3.773,5.377c-1.043,0-2.064-0.469-2.064-1.381
		c0-0.568,0.466-0.938,0.889-0.938c0.954,0,1.176,1.48,1.975,1.48c1.109,0,1.109-1.406,1.109-3.428V140.585z M27.721,131.979
		c0.666,0,1.155,0.566,1.155,1.258c0,0.715-0.489,1.257-1.155,1.257c-0.798,0-1.109-0.79-1.109-1.257
		C26.611,132.768,26.945,131.979,27.721,131.979z"/>
	<path d="M35.445,148.378c-2.663,0-3.174-4.537-3.174-6.362c0-2.565,1.221-3.847,2.62-3.847c2.042,0,3.173,2.688,3.173,5.746
		C38.064,147.44,36.577,148.378,35.445,148.378z M35.068,137.478c-2.974,0-4.794,2.688-4.794,5.722c0,3.329,1.997,5.87,4.86,5.87
		c3.374,0,4.927-3.428,4.927-5.87C40.061,139.624,37.976,137.478,35.068,137.478z"/>
	<path d="M50.249,147.935c-1.199,0.344-2.042,0.689-3.085,1.109l-0.045-0.049v-2.047l-0.954,1.061
		c-0.865,0.961-1.931,1.061-2.331,1.061c-0.91,0-2.641-0.592-2.641-3.207v-6.214c0-1.479-0.71-1.529-1.376-1.579v-0.345h3.24v8.04
		c0,0.346,0.199,1.873,1.665,1.873c0.666,0,1.331-0.344,1.931-0.889c0.199-0.195,0.354-0.441,0.354-1.256v-5.795
		c0-0.987-0.089-1.506-1.642-1.555v-0.419h3.507v8.46c0,0.887,0.045,1.453,1.376,1.404V147.935z"/>
	<path d="M51.292,140.585c0-1.455-0.421-1.479-0.776-1.479c-0.312,0-0.555,0.05-0.755,0.099v-0.395
		c1.088-0.395,2.197-0.838,3.284-1.332l0.111,0.049v2.195h0.045c1.043-1.75,1.797-2.244,2.641-2.244
		c0.754,0,1.198,0.519,1.198,1.332c0,0.617-0.31,1.085-0.843,1.085c-0.776,0-1-0.863-1.532-0.863s-1.51,1.233-1.51,2.022v5.549
		c0,1.701,0.755,1.801,1.887,1.85v0.369h-5.327v-0.369c1.22-0.246,1.576-0.32,1.576-1.703V140.585z"/>
	<path d="M63.433,146.308c-0.177,0.887-1.043,1.479-1.976,1.479c-1.464,0-3.063-1.381-3.063-5.055c0-3.354,1.509-4.563,2.752-4.563
		c1.043,0,2.13,0.789,2.286,2.466V146.308z M66.784,147.392c-1.486,0.123-1.486-0.369-1.486-1.381v-13.982l-0.112-0.049
		c-1.065,0.418-2.153,0.764-3.263,1.084v0.395c0.178-0.024,0.4-0.024,0.533-0.024c0.976,0,0.976,0.519,0.976,1.257v3.848
		c-0.732-0.715-1.398-1.061-2.352-1.061c-2.487,0-4.595,2.837-4.595,6.067c0,5.03,3.174,5.524,4.04,5.524
		c1.642,0,2.463-0.912,2.862-1.578h0.044v1.504l0.089,0.074c1.176-0.469,2.197-0.863,3.262-1.283V147.392z"/>
	<path d="M67.828,137.478c0.333-0.395,1.043-1.381,1.043-2.268c0-0.347-0.177-0.395-0.443-0.42c-0.6-0.05-0.999-0.518-0.999-1.282
		c0-0.813,0.555-1.356,1.309-1.356c0.733,0,1.399,0.493,1.399,1.701c0,1.752-1.198,3.23-1.576,3.625H67.828z"/>
	<path d="M80.922,148.821h-4.705v-0.369c1.087-0.123,1.508-0.246,1.508-2.145v-4.884c0-1.652-0.488-2.614-1.708-2.614
		c-0.644,0-1.509,0.369-2.419,1.554v5.944c0,1.898,0.421,2.021,1.508,2.145v0.369h-4.794v-0.369c1.2-0.174,1.421-0.346,1.421-2.145
		V134.69c0-0.738,0-1.257-0.976-1.257c-0.133,0-0.355,0-0.422,0.024v-0.395c0.999-0.32,2.086-0.666,3.152-1.084l0.111,0.073v7.447
		h0.044c0.777-1.233,1.864-2.022,3.196-2.022c2.73,0,2.752,2.936,2.752,3.922v4.908c0,1.799,0.222,1.922,1.332,2.145V148.821z"/>
	<path d="M90.732,147.935c-1.198,0.344-2.042,0.689-3.084,1.109l-0.045-0.049v-2.047l-0.954,1.061
		c-0.866,0.961-1.931,1.061-2.331,1.061c-0.91,0-2.641-0.592-2.641-3.207v-6.214c0-1.479-0.71-1.529-1.376-1.579v-0.345h3.24v8.04
		c0,0.346,0.199,1.873,1.665,1.873c0.667,0,1.332-0.344,1.932-0.889c0.199-0.195,0.354-0.441,0.354-1.256v-5.795
		c0-0.987-0.088-1.506-1.642-1.555v-0.419h3.507v8.46c0,0.887,0.044,1.453,1.375,1.404V147.935z"/>
	<path d="M90.444,148.452c1.376-0.074,1.754-0.223,1.754-2.145v-5.723c0-1.455-0.421-1.479-0.777-1.479
		c-0.31,0-0.599,0.05-0.888,0.099v-0.369c1.154-0.42,2.286-0.889,3.44-1.357l0.089,0.074v8.756c0,1.627,0.111,2.045,1.642,2.145
		v0.369h-5.26V148.452z M92.931,131.979c0.666,0,1.153,0.566,1.153,1.258c0,0.715-0.488,1.257-1.153,1.257
		c-0.799,0-1.11-0.79-1.11-1.257C91.82,132.768,92.153,131.979,92.931,131.979z"/>
	<path d="M107.602,133.039c2.264,0,4.727,1.998,4.727,7.646c0,5.4-2.264,7.594-4.727,7.594c-2.465,0-4.728-2.193-4.728-7.594
		C102.874,135.037,105.337,133.039,107.602,133.039z M115.147,152.743c-2.042-0.049-3.308-0.789-4.351-1.703
		c-0.376-0.344-1.553-1.627-1.752-2.045c2.396-0.32,5.815-2.885,5.815-8.311c0-5.673-3.618-8.533-7.258-8.533
		c-3.641,0-7.258,2.886-7.258,8.533c0,5.252,3.063,7.545,5.127,8.162l1.043,1.357c1.731,2.193,4.617,3.008,7.59,3.008
		c0.289,0,0.732,0,1.043-0.025V152.743z"/>
	<path d="M125.135,147.935c-1.199,0.344-2.042,0.689-3.086,1.109l-0.043-0.049v-2.047l-0.955,1.061
		c-0.866,0.961-1.931,1.061-2.331,1.061c-0.91,0-2.641-0.592-2.641-3.207v-6.214c0-1.479-0.71-1.529-1.376-1.579v-0.345h3.24v8.04
		c0,0.346,0.2,1.873,1.665,1.873c0.666,0,1.332-0.344,1.931-0.889c0.2-0.195,0.355-0.441,0.355-1.256v-5.795
		c0-0.987-0.089-1.506-1.643-1.555v-0.419h3.506v8.46c0,0.887,0.044,1.453,1.377,1.404V147.935z"/>
	<path d="M126.644,141.202c0.355-2.171,1.221-2.836,2.441-2.836c1.754,0,1.976,1.651,2.131,2.836H126.644z M128.686,136.319
		l3.418-2.393c0.222-0.148,0.666-0.469,0.666-1.036c0-0.099-0.022-0.789-0.733-0.789c-0.31,0-0.465,0-0.976,0.567l-3.263,3.65
		H128.686z M133.546,144.778c-0.51,0.912-1.465,2.588-3.44,2.588c-1.465,0-3.262-1.01-3.528-5.376h6.902
		c-0.244-3.229-1.82-4.513-3.907-4.513c-1.775,0-4.527,1.505-4.527,6.067c0,3.501,1.687,5.524,4.151,5.524
		c3.195,0,4.483-3.354,4.705-4.119L133.546,144.778z"/>
	<path d="M136.632,140.882c0.088-1.406,1.509-1.851,2.219-1.851c2.02,0,2.819,2.541,2.819,4.835c0,1.627-0.354,4.412-2.907,4.412
		c-0.555,0-2.13-0.32-2.13-1.182V140.882z M134.767,147.491c0,0.912,2.331,1.578,3.44,1.578c4.107,0,5.416-3.896,5.416-6.116
		c0-2.639-1.266-5.476-3.951-5.476c-1.687,0-2.864,1.43-2.997,1.998h-0.044v-7.447l-0.111-0.049
		c-1.065,0.418-2.152,0.764-3.218,1.084v0.395c0.133-0.024,0.354-0.024,0.488-0.024c0.976,0,0.976,0.519,0.976,1.257V147.491z"/>
	<path d="M145.377,141.202c0.354-2.171,1.22-2.836,2.441-2.836c1.754,0,1.976,1.651,2.131,2.836H145.377z M152.278,144.778
		c-0.509,0.912-1.464,2.588-3.44,2.588c-1.465,0-3.262-1.01-3.528-5.376h6.902c-0.244-3.229-1.819-4.513-3.906-4.513
		c-1.775,0-4.528,1.505-4.528,6.067c0,3.501,1.687,5.524,4.15,5.524c3.196,0,4.484-3.354,4.706-4.119L152.278,144.778z"/>
	<path d="M161.112,145.196c-1.198,2.813-2.642,3.873-4.438,3.873c-1.775,0-4.15-1.604-4.15-5.5c0-4.045,2.574-6.092,4.97-6.092
		c0.801,0,1.799,0.371,2.354,0.766c0.665,0.518,0.955,1.281,0.955,1.727c0,0.566-0.355,1.035-1.021,1.084
		c-0.577,0.049-0.955-0.592-1.087-1.134l-0.134-0.543c-0.178-0.74-0.289-1.185-1.465-1.185c-0.821,0-2.863,0.766-2.863,4.391
		c0,2.836,1.532,4.711,3.396,4.711c1.598,0,2.419-1.061,3.174-2.32L161.112,145.196z"/>
	<path d="M162.554,152.3c0.666-0.246,2.486-1.875,2.486-3.625c0-2.047-1.287-2.367-1.798-2.367c-0.556,0-1.286,0.369-1.286,1.43
		c0,0.986,0.799,1.232,1.375,1.232c0.155,0,0.267-0.025,0.332-0.049c0.09-0.025,0.156-0.051,0.201-0.051
		c0.154,0,0.311,0.125,0.311,0.346c0,0.471-0.355,1.58-1.82,2.615L162.554,152.3z"/>
	<path d="M177.135,146.308c-0.179,0.887-1.044,1.479-1.978,1.479c-1.464,0-3.063-1.381-3.063-5.055c0-3.354,1.51-4.563,2.754-4.563
		c1.042,0,2.129,0.789,2.286,2.466V146.308z M180.486,147.392c-1.488,0.123-1.488-0.369-1.488-1.381v-13.982l-0.109-0.049
		c-1.066,0.418-2.154,0.764-3.264,1.084v0.395c0.178-0.024,0.398-0.024,0.533-0.024c0.978,0,0.978,0.519,0.978,1.257v3.848
		c-0.733-0.715-1.399-1.061-2.354-1.061c-2.485,0-4.594,2.837-4.594,6.067c0,5.03,3.173,5.524,4.038,5.524
		c1.643,0,2.463-0.912,2.864-1.578h0.045v1.504l0.087,0.074c1.177-0.469,2.197-0.863,3.264-1.283V147.392z"/>
	<path d="M181.728,141.202c0.355-2.171,1.221-2.836,2.442-2.836c1.753,0,1.976,1.651,2.13,2.836H181.728z M188.631,144.778
		c-0.511,0.912-1.466,2.588-3.44,2.588c-1.464,0-3.264-1.01-3.528-5.376h6.901c-0.244-3.229-1.82-4.513-3.906-4.513
		c-1.775,0-4.527,1.505-4.527,6.067c0,3.501,1.688,5.524,4.15,5.524c3.196,0,4.482-3.354,4.705-4.119L188.631,144.778z"/>
	<path d="M190.23,140.487c0-1.554-0.422-1.58-0.778-1.58c-0.31,0-0.531,0.051-0.71,0.1v-0.42c1.043-0.32,2.086-0.689,3.108-1.109
		l0.154,0.049v1.851c1.31-1.11,2.22-1.899,3.419-1.899c1.443,0,2.131,1.036,2.375,2.072c0.465-0.592,1.82-2.072,3.573-2.072
		c2.308,0,2.618,2.565,2.618,4.391v5.08c0,0.543-0.023,1.281,0.954,1.455l0.578,0.049v0.369h-4.861v-0.369
		c1.11-0.148,1.464-0.197,1.464-1.775v-5.203c0-1.258-0.021-2.713-1.619-2.713c-1.221,0-1.977,0.666-2.465,1.504v6.215
		c0,1.873,0.688,1.947,1.598,1.973v0.369h-4.971v-0.369c0.999-0.074,1.511-0.148,1.511-1.75v-5.353c0-1.628-0.379-2.589-1.533-2.589
		c-1.531,0-2.551,1.332-2.551,1.455v6.955c0,1.207,0.73,1.256,1.509,1.281v0.369h-4.928v-0.369c0.889-0.025,1.555-0.074,1.555-1.727
		V140.487z"/>
	<path d="M210.847,145.79c0,0.738-0.066,1.035-0.755,1.404c-0.199,0.125-0.888,0.443-1.374,0.443c-0.822,0-1.466-0.764-1.466-1.922
		v-0.051c0-0.838,0.245-2.219,3.595-3.453V145.79z M214.289,147.194c-0.244,0.221-0.533,0.469-1,0.469
		c-0.644,0-0.644-0.715-0.644-1.43v-4.81c0-1.479,0-3.946-3.306-3.946c-2.576,0-3.617,1.752-3.617,2.738
		c0,0.395,0.266,1.085,0.955,1.085c0.575,0,0.997-0.543,0.997-1.062c0-0.222-0.11-0.591-0.11-0.961c0-0.765,0.843-1.209,1.576-1.209
		c0.665,0,1.707,0.271,1.707,2.047v1.505c-3.617,1.578-5.547,2.417-5.547,4.882c0,1.654,1.154,2.566,2.352,2.566
		c1.221,0,2.398-0.986,3.219-1.801c0.111,1.775,1.042,1.801,1.443,1.801c0.354,0,1.042-0.025,1.975-1.234V147.194z"/>
	<path d="M213.578,148.452c1.377-0.074,1.753-0.223,1.753-2.145v-5.723c0-1.455-0.421-1.479-0.775-1.479
		c-0.312,0-0.601,0.05-0.888,0.099v-0.369c1.154-0.42,2.286-0.889,3.438-1.357l0.089,0.074v8.756c0,1.627,0.112,2.045,1.644,2.145
		v0.369h-5.261V148.452z M216.064,131.979c0.665,0,1.154,0.566,1.154,1.258c0,0.715-0.489,1.257-1.154,1.257
		c-0.799,0-1.109-0.79-1.109-1.257C214.955,132.768,215.286,131.979,216.064,131.979z"/>
	<path d="M220.06,140.487c0-1.554-0.424-1.58-0.777-1.58c-0.313,0-0.557,0.051-0.645,0.1v-0.42c0.998-0.32,2.043-0.689,3.063-1.109
		l0.156,0.049v1.949c1.088-1.135,1.93-1.998,3.239-1.998c1.022,0,2.598,0.666,2.598,3.7v5.647c0,1.158,0.267,1.527,1.354,1.627
		v0.369h-4.618v-0.369c0.823-0.074,1.399-0.197,1.399-2.072v-5.154c0-1.504-0.399-2.391-1.709-2.391
		c-0.665,0-1.354,0.492-2.198,1.404v6.932c0,0.813,0.312,1.207,1.466,1.281v0.369h-4.705v-0.369c1.043-0.074,1.377-0.395,1.377-1.85
		V140.487z"/>
	<path d="M233.176,148.452c1.31-0.1,1.708-0.42,1.708-1.775v-11.764c0-1.109-0.133-1.504-0.998-1.504
		c-0.289,0-0.488,0.024-0.755,0.049v-0.395c1.177-0.32,2.354-0.666,3.53-1.084l0.088,0.049v14.721c0,1.432,0.379,1.629,1.665,1.703
		v0.369h-5.238V148.452z"/>
	<path d="M239.923,141.202c0.355-2.171,1.221-2.836,2.442-2.836c1.753,0,1.975,1.651,2.13,2.836H239.923z M246.826,144.778
		c-0.511,0.912-1.465,2.588-3.439,2.588c-1.466,0-3.264-1.01-3.528-5.376h6.901c-0.244-3.229-1.82-4.513-3.906-4.513
		c-1.775,0-4.528,1.505-4.528,6.067c0,3.501,1.688,5.524,4.151,5.524c3.195,0,4.482-3.354,4.704-4.119L246.826,144.778z"/>
	<path d="M252.863,140.487c0-1.554-0.422-1.58-0.776-1.58c-0.312,0-0.533,0.051-0.71,0.1v-0.42c1.043-0.32,2.086-0.689,3.106-1.109
		l0.155,0.049v1.851c1.311-1.11,2.221-1.899,3.418-1.899c1.443,0,2.131,1.036,2.375,2.072c0.467-0.592,1.82-2.072,3.573-2.072
		c2.308,0,2.62,2.565,2.62,4.391v5.08c0,0.543-0.023,1.281,0.953,1.455l0.578,0.049v0.369h-4.862v-0.369
		c1.11-0.148,1.466-0.197,1.466-1.775v-5.203c0-1.258-0.022-2.713-1.62-2.713c-1.222,0-1.975,0.666-2.464,1.504v6.215
		c0,1.873,0.688,1.947,1.599,1.973v0.369h-4.972v-0.369c0.998-0.074,1.509-0.148,1.509-1.75v-5.353c0-1.628-0.377-2.589-1.531-2.589
		c-1.532,0-2.553,1.332-2.553,1.455v6.955c0,1.207,0.733,1.256,1.509,1.281v0.369h-4.927v-0.369
		c0.888-0.025,1.554-0.074,1.554-1.727V140.487z"/>
	<path d="M272.927,148.378c-2.663,0-3.174-4.537-3.174-6.362c0-2.565,1.221-3.847,2.618-3.847c2.042,0,3.173,2.688,3.173,5.746
		C275.544,147.44,274.059,148.378,272.927,148.378z M272.55,137.478c-2.975,0-4.794,2.688-4.794,5.722
		c0,3.329,1.997,5.87,4.858,5.87c3.376,0,4.93-3.428,4.93-5.87C277.544,139.624,275.458,137.478,272.55,137.478z"/>
	<path d="M278.875,140.487c0-1.554-0.421-1.58-0.778-1.58c-0.309,0-0.553,0.051-0.643,0.1v-0.42c1-0.32,2.042-0.689,3.064-1.109
		l0.154,0.049v1.949c1.088-1.135,1.93-1.998,3.241-1.998c1.02,0,2.595,0.666,2.595,3.7v5.647c0,1.158,0.268,1.527,1.354,1.627v0.369
		h-4.615v-0.369c0.82-0.074,1.396-0.197,1.396-2.072v-5.154c0-1.504-0.399-2.391-1.708-2.391c-0.666,0-1.354,0.492-2.197,1.404
		v6.932c0,0.813,0.311,1.207,1.465,1.281v0.369H277.5v-0.369c1.043-0.074,1.376-0.395,1.376-1.85V140.487z"/>
	<path d="M294.634,146.308c-0.179,0.887-1.044,1.479-1.977,1.479c-1.463,0-3.063-1.381-3.063-5.055c0-3.354,1.51-4.563,2.754-4.563
		c1.041,0,2.129,0.789,2.285,2.466V146.308z M297.986,147.392c-1.488,0.123-1.488-0.369-1.488-1.381v-13.982l-0.109-0.049
		c-1.065,0.418-2.154,0.764-3.264,1.084v0.395c0.177-0.024,0.398-0.024,0.533-0.024c0.977,0,0.977,0.519,0.977,1.257v3.848
		c-0.732-0.715-1.398-1.061-2.354-1.061c-2.484,0-4.594,2.837-4.594,6.067c0,5.03,3.174,5.524,4.039,5.524
		c1.643,0,2.465-0.912,2.863-1.578h0.045v1.504l0.088,0.074c1.177-0.469,2.199-0.863,3.264-1.283V147.392z"/>
	<path d="M299.228,141.202c0.355-2.171,1.221-2.836,2.441-2.836c1.754,0,1.976,1.651,2.131,2.836H299.228z M306.13,144.778
		c-0.51,0.912-1.463,2.588-3.439,2.588c-1.465,0-3.262-1.01-3.529-5.376h6.902c-0.244-3.229-1.82-4.513-3.905-4.513
		c-1.777,0-4.529,1.505-4.529,6.067c0,3.501,1.688,5.524,4.151,5.524c3.195,0,4.482-3.354,4.707-4.119L306.13,144.778z"/>
</g>
</svg>
